<svg xmlns="http://www.w3.org/2000/svg" xmlns:xlink="http://www.w3.org/1999/xlink" width="50" height="70" viewBox="0 0 50 70"><defs><style>.cls-1{isolation:isolate;}.cls-2{fill:#d18a25;}.cls-3,.cls-4,.cls-5,.cls-6{fill-rule:evenodd;}.cls-3,.cls-5,.cls-6{mix-blend-mode:luminosity;}.cls-3{fill:url(#Безымянный_градиент_225);}.cls-4{opacity:0.8;mix-blend-mode:hard-light;fill:url(#Безымянный_градиент_219);}.cls-5{fill:url(#Безымянный_градиент_224);}.cls-6{fill:url(#Безымянный_градиент_222);}.cls-7{font-size:18px;fill:#2e2f40;font-family:Ubuntu-Bold, Ubuntu;font-weight:700;}</style><linearGradient id="Безымянный_градиент_225" x1="41.08" y1="35.43" x2="50" y2="35.43" gradientUnits="userSpaceOnUse"><stop offset="0" stop-color="#926d98" stop-opacity="0"/><stop offset="0.09" stop-color="#926d97" stop-opacity="0.21"/><stop offset="0.2" stop-color="#926d95" stop-opacity="0.45"/><stop offset="0.33" stop-color="#916d93" stop-opacity="0.65"/><stop offset="0.46" stop-color="#916d92" stop-opacity="0.81"/><stop offset="0.61" stop-color="#916d92" stop-opacity="0.92"/><stop offset="0.77" stop-color="#916d91" stop-opacity="0.98"/><stop offset="1" stop-color="#916d91"/></linearGradient><linearGradient id="Безымянный_градиент_219" x1="24.7" y1="69.97" x2="24.7" y2="58.47" gradientUnits="userSpaceOnUse"><stop offset="0" stop-color="#363438"/><stop offset="0.29" stop-color="#3c383f" stop-opacity="0.94"/><stop offset="0.54" stop-color="#4d4254" stop-opacity="0.74"/><stop offset="0.78" stop-color="#6a5478" stop-opacity="0.42"/><stop offset="1" stop-color="#8f6ca6" stop-opacity="0"/></linearGradient><linearGradient id="Безымянный_градиент_224" y1="34.67" x2="8.98" y2="34.67" gradientUnits="userSpaceOnUse"><stop offset="0" stop-color="#916d91"/><stop offset="0.35" stop-color="#916d91" stop-opacity="0.99"/><stop offset="0.51" stop-color="#916d91" stop-opacity="0.93"/><stop offset="0.63" stop-color="#916d92" stop-opacity="0.85"/><stop offset="0.73" stop-color="#916d93" stop-opacity="0.72"/><stop offset="0.82" stop-color="#916d94" stop-opacity="0.56"/><stop offset="0.9" stop-color="#926d95" stop-opacity="0.36"/><stop offset="0.97" stop-color="#926d97" stop-opacity="0.13"/><stop offset="1" stop-color="#926d98" stop-opacity="0"/></linearGradient><linearGradient id="Безымянный_градиент_222" x1="25.43" y1="-0.1" x2="25.43" y2="7.98" gradientUnits="userSpaceOnUse"><stop offset="0" stop-color="#d1b5c9"/><stop offset="0.21" stop-color="#d2b6ca" stop-opacity="0.99"/><stop offset="0.36" stop-color="#d4b9cc" stop-opacity="0.94"/><stop offset="0.48" stop-color="#d7bfd0" stop-opacity="0.87"/><stop offset="0.59" stop-color="#dcc6d6" stop-opacity="0.77"/><stop offset="0.7" stop-color="#e2d0dd" stop-opacity="0.63"/><stop offset="0.8" stop-color="#e9dce6" stop-opacity="0.47"/><stop offset="0.89" stop-color="#f2ebf0" stop-opacity="0.28"/><stop offset="0.98" stop-color="#fcfbfc" stop-opacity="0.06"/><stop offset="1" stop-color="#fff" stop-opacity="0"/></linearGradient></defs><title>3_1</title><g class="cls-1"><g id="Слой_2" data-name="Слой 2"><g id="icons"><rect class="cls-2" width="50" height="70" rx="10"/><path class="cls-3" d="M50,10V60a10,10,0,0,1-3.08,7.21L41.08,62A4.81,4.81,0,0,0,43,58.18V11.82a4.84,4.84,0,0,0-1.11-3.08l5.84-5.09A10,10,0,0,1,50,10Z"/><path class="cls-4" d="M46.92,67.21A9.92,9.92,0,0,1,40,70H10a10,10,0,0,1-7.51-3.4l5.84-5.1A4.82,4.82,0,0,0,11.82,63H38.18a4.79,4.79,0,0,0,2.9-1Z"/><path class="cls-5" d="M7,11.82V58.18A4.76,4.76,0,0,0,8.33,61.5L2.49,66.6A10,10,0,0,1,0,60V10A10,10,0,0,1,3.14,2.73L9,7.93A4.8,4.8,0,0,0,7,11.82Z"/><path class="cls-6" d="M47.73,3.65,41.89,8.74A4.82,4.82,0,0,0,38.18,7H11.82A4.76,4.76,0,0,0,9,7.93L3.14,2.73A10,10,0,0,1,10,0H40A10,10,0,0,1,47.73,3.65Z"/></g></g></g></svg>