<svg xmlns="http://www.w3.org/2000/svg" xmlns:xlink="http://www.w3.org/1999/xlink" width="50" height="70"  viewBox="0 0 50 70"><defs><style>.cls-1{isolation:isolate;}.cls-2{fill:#dff3f6;}.cls-3,.cls-4,.cls-5,.cls-6{fill-rule:evenodd;mix-blend-mode:luminosity;}.cls-3{fill:url(#Безымянный_градиент_34);}.cls-4{fill:url(#Безымянный_градиент_40);}.cls-5{fill:url(#Безымянный_градиент_35);}.cls-6{fill:url(#Безымянный_градиент_222);}.cls-7{font-size:18px;fill:#2e2f40;font-family:Ubuntu-Bold, Ubuntu;font-weight:700;}</style><linearGradient id="Безымянный_градиент_34" x1="41.08" y1="35.43" x2="50" y2="35.43" gradientUnits="userSpaceOnUse"><stop offset="0" stop-color="#b9cbce" stop-opacity="0"/><stop offset="0.06" stop-color="#b6c7cb" stop-opacity="0.16"/><stop offset="0.17" stop-color="#b2c3c6" stop-opacity="0.38"/><stop offset="0.28" stop-color="#aebec3" stop-opacity="0.57"/><stop offset="0.39" stop-color="#abbbbf" stop-opacity="0.73"/><stop offset="0.51" stop-color="#a9b8bd" stop-opacity="0.85"/><stop offset="0.64" stop-color="#a7b6bb" stop-opacity="0.93"/><stop offset="0.79" stop-color="#a6b5ba" stop-opacity="0.98"/><stop offset="1" stop-color="#a6b5ba"/></linearGradient><linearGradient id="Безымянный_градиент_40" x1="24.7" y1="69.97" x2="24.7" y2="58.47" gradientUnits="userSpaceOnUse"><stop offset="0" stop-color="#849195"/><stop offset="0.23" stop-color="#859296" stop-opacity="0.98"/><stop offset="0.39" stop-color="#88969a" stop-opacity="0.92"/><stop offset="0.53" stop-color="#8e9ca0" stop-opacity="0.81"/><stop offset="0.66" stop-color="#96a5a8" stop-opacity="0.66"/><stop offset="0.79" stop-color="#a0b0b3" stop-opacity="0.47"/><stop offset="0.9" stop-color="#adbdc1" stop-opacity="0.24"/><stop offset="1" stop-color="#b9cbce" stop-opacity="0"/></linearGradient><linearGradient id="Безымянный_градиент_35" y1="34.67" x2="8.98" y2="34.67" gradientUnits="userSpaceOnUse"><stop offset="0" stop-color="#a6b5ba"/><stop offset="0.21" stop-color="#a6b5ba" stop-opacity="0.98"/><stop offset="0.36" stop-color="#a7b6bb" stop-opacity="0.93"/><stop offset="0.49" stop-color="#a9b8bd" stop-opacity="0.85"/><stop offset="0.61" stop-color="#abbbbf" stop-opacity="0.73"/><stop offset="0.72" stop-color="#aebec3" stop-opacity="0.57"/><stop offset="0.83" stop-color="#b2c3c6" stop-opacity="0.38"/><stop offset="0.94" stop-color="#b6c7cb" stop-opacity="0.16"/><stop offset="1" stop-color="#b9cbce" stop-opacity="0"/></linearGradient><linearGradient id="Безымянный_градиент_222" x1="25.43" y1="-0.1" x2="25.43" y2="7.98" gradientUnits="userSpaceOnUse"><stop offset="0" stop-color="#d1b5c9"/><stop offset="0.21" stop-color="#d2b6ca" stop-opacity="0.99"/><stop offset="0.36" stop-color="#d4b9cc" stop-opacity="0.94"/><stop offset="0.48" stop-color="#d7bfd0" stop-opacity="0.87"/><stop offset="0.59" stop-color="#dcc6d6" stop-opacity="0.77"/><stop offset="0.7" stop-color="#e2d0dd" stop-opacity="0.63"/><stop offset="0.8" stop-color="#e9dce6" stop-opacity="0.47"/><stop offset="0.89" stop-color="#f2ebf0" stop-opacity="0.28"/><stop offset="0.98" stop-color="#fcfbfc" stop-opacity="0.06"/><stop offset="1" stop-color="#fff" stop-opacity="0"/></linearGradient></defs><title>3</title><g class="cls-1"><g id="Слой_2" data-name="Слой 2"><g id="icons"><rect class="cls-2" width="50" height="70" rx="10"/><path class="cls-3" d="M50,10V60a10,10,0,0,1-3.08,7.21L41.08,62A4.81,4.81,0,0,0,43,58.18V11.82a4.84,4.84,0,0,0-1.11-3.08l5.84-5.09A10,10,0,0,1,50,10Z"/><path class="cls-4" d="M46.92,67.21A9.92,9.92,0,0,1,40,70H10a10,10,0,0,1-7.51-3.4l5.84-5.1A4.82,4.82,0,0,0,11.82,63H38.18a4.79,4.79,0,0,0,2.9-1Z"/><path class="cls-5" d="M7,11.82V58.18A4.76,4.76,0,0,0,8.33,61.5L2.49,66.6A10,10,0,0,1,0,60V10A10,10,0,0,1,3.14,2.73L9,7.93A4.8,4.8,0,0,0,7,11.82Z"/><path class="cls-6" d="M47.73,3.65,41.89,8.74A4.82,4.82,0,0,0,38.18,7H11.82A4.76,4.76,0,0,0,9,7.93L3.14,2.73A10,10,0,0,1,10,0H40A10,10,0,0,1,47.73,3.65Z"/></g></g></g></svg>