<svg xmlns="http://www.w3.org/2000/svg" xmlns:xlink="http://www.w3.org/1999/xlink" width="250" height="80"  viewBox="0 0 250 80"><defs><style>.cls-1{isolation:isolate;}.cls-2{fill:url(#Безымянный_градиент_214);}.cls-3{font-size:18px;font-family:Ubuntu-Medium, Ubuntu;font-weight:500;}.cls-3,.cls-8{fill:#2e2f40;}.cls-4,.cls-5,.cls-6,.cls-7{fill-rule:evenodd;}.cls-4,.cls-6,.cls-7{mix-blend-mode:luminosity;}.cls-4{fill:url(#Безымянный_градиент_225);}.cls-5{opacity:0.8;mix-blend-mode:hard-light;fill:url(#Безымянный_градиент_219);}.cls-6{fill:url(#Безымянный_градиент_224);}.cls-7{fill:url(#Безымянный_градиент_222);}</style><linearGradient id="Безымянный_градиент_214" x1="125" x2="125" y2="79.29" gradientUnits="userSpaceOnUse"><stop offset="0" stop-color="#8563a6"/><stop offset="1" stop-color="#6266b3"/></linearGradient><linearGradient id="Безымянный_градиент_225" x1="241.08" y1="40.43" x2="250" y2="40.43" gradientUnits="userSpaceOnUse"><stop offset="0" stop-color="#926d98" stop-opacity="0"/><stop offset="0.09" stop-color="#926d97" stop-opacity="0.21"/><stop offset="0.2" stop-color="#926d95" stop-opacity="0.45"/><stop offset="0.33" stop-color="#916d93" stop-opacity="0.65"/><stop offset="0.46" stop-color="#916d92" stop-opacity="0.81"/><stop offset="0.61" stop-color="#916d92" stop-opacity="0.92"/><stop offset="0.77" stop-color="#916d91" stop-opacity="0.98"/><stop offset="1" stop-color="#916d91"/></linearGradient><linearGradient id="Безымянный_градиент_219" x1="124.7" y1="79.97" x2="124.7" y2="68.47" gradientUnits="userSpaceOnUse"><stop offset="0" stop-color="#363438"/><stop offset="0.29" stop-color="#3c383f" stop-opacity="0.94"/><stop offset="0.54" stop-color="#4d4254" stop-opacity="0.74"/><stop offset="0.78" stop-color="#6a5478" stop-opacity="0.42"/><stop offset="1" stop-color="#8f6ca6" stop-opacity="0"/></linearGradient><linearGradient id="Безымянный_градиент_224" y1="39.67" x2="8.98" y2="39.67" gradientUnits="userSpaceOnUse"><stop offset="0" stop-color="#916d91"/><stop offset="0.35" stop-color="#916d91" stop-opacity="0.99"/><stop offset="0.51" stop-color="#916d91" stop-opacity="0.93"/><stop offset="0.63" stop-color="#916d92" stop-opacity="0.85"/><stop offset="0.73" stop-color="#916d93" stop-opacity="0.72"/><stop offset="0.82" stop-color="#916d94" stop-opacity="0.56"/><stop offset="0.9" stop-color="#926d95" stop-opacity="0.36"/><stop offset="0.97" stop-color="#926d97" stop-opacity="0.13"/><stop offset="1" stop-color="#926d98" stop-opacity="0"/></linearGradient><linearGradient id="Безымянный_градиент_222" x1="125.43" y1="-0.1" x2="125.43" y2="7.98" gradientUnits="userSpaceOnUse"><stop offset="0" stop-color="#d1b5c9"/><stop offset="0.21" stop-color="#d2b6ca" stop-opacity="0.99"/><stop offset="0.36" stop-color="#d4b9cc" stop-opacity="0.94"/><stop offset="0.48" stop-color="#d7bfd0" stop-opacity="0.87"/><stop offset="0.59" stop-color="#dcc6d6" stop-opacity="0.77"/><stop offset="0.7" stop-color="#e2d0dd" stop-opacity="0.63"/><stop offset="0.8" stop-color="#e9dce6" stop-opacity="0.47"/><stop offset="0.89" stop-color="#f2ebf0" stop-opacity="0.28"/><stop offset="0.98" stop-color="#fcfbfc" stop-opacity="0.06"/><stop offset="1" stop-color="#fff" stop-opacity="0"/></linearGradient></defs><title>all_screen_butt</title><g class="cls-1"><g id="Слой_2" data-name="Слой 2"><g id="icons"><rect class="cls-2" width="250" height="80" rx="10"/><path class="cls-4" d="M250,10V70a10,10,0,0,1-3.08,7.21L241.08,72A4.81,4.81,0,0,0,243,68.18V11.82a4.84,4.84,0,0,0-1.11-3.08l5.84-5.09A10,10,0,0,1,250,10Z"/><path class="cls-5" d="M246.92,77.21A9.92,9.92,0,0,1,240,80H10a10,10,0,0,1-7.51-3.4l5.84-5.1A4.82,4.82,0,0,0,11.82,73H238.18a4.79,4.79,0,0,0,2.9-1Z"/><path class="cls-6" d="M7,11.82V68.18A4.76,4.76,0,0,0,8.33,71.5L2.49,76.6A10,10,0,0,1,0,70V10A10,10,0,0,1,3.14,2.73L9,7.93A4.8,4.8,0,0,0,7,11.82Z"/><path class="cls-7" d="M247.73,3.65l-5.84,5.09A4.82,4.82,0,0,0,238.18,7H11.82A4.76,4.76,0,0,0,9,7.93L3.14,2.73A10,10,0,0,1,10,0H240A10,10,0,0,1,247.73,3.65Z"/><path class="cls-8" d="M76.39,51h-2V29a3,3,0,0,0-3-3h-4v2h4a1,1,0,0,1,1,1V51h-38V29a1,1,0,0,1,1-1h3V26h-3a3,3,0,0,0-3,3V51h-2a1,1,0,0,0-1,1v2a5,5,0,0,0,5,5h38a5,5,0,0,0,5-5V52A1,1,0,0,0,76.39,51Zm-1,3a3,3,0,0,1-3,3h-38a3,3,0,0,1-3-3V53h44Zm-19,0h-6v2h6Zm-14-6h21a2,2,0,0,0,2-2V18a2,2,0,0,0-2-2h-21a2,2,0,0,0-2,2V46A2,2,0,0,0,42.39,48Zm0-30h21V46h-21ZM55.62,38,55.37,38a10.16,10.16,0,0,0-2.48-.41,10.33,10.33,0,0,0-2.48.41l-.25.06A1,1,0,1,0,50.62,40l.28-.07a9.47,9.47,0,0,1,2-.34,9.36,9.36,0,0,1,2,.34l.28.07.23,0a1,1,0,0,0,.23-2Zm.24-10.35c-.87-.69-1.85-1.47-2-2a1,1,0,0,0-1.9,0c-.16.52-1.15,1.3-2,2-1.65,1.33-3.53,2.82-3.53,4.9a4.07,4.07,0,0,0,2.36,3.89,5.5,5.5,0,0,0,4.14-.08,5.26,5.26,0,0,0,2.21.44A4.58,4.58,0,0,0,57,36.47a4.07,4.07,0,0,0,2.36-3.89C59.39,30.5,57.51,29,55.86,27.68Zm.29,7a3.39,3.39,0,0,1-2.59-.22,1,1,0,0,0-1.34,0,3.37,3.37,0,0,1-2.58.22,2.1,2.1,0,0,1-1.25-2.1c0-1.11,1.48-2.29,2.78-3.33a18.83,18.83,0,0,0,1.72-1.49,20.27,20.27,0,0,0,1.72,1.49c1.3,1,2.78,2.22,2.78,3.33A2.09,2.09,0,0,1,56.15,34.68Z"/></g></g></g></svg>