<svg xmlns="http://www.w3.org/2000/svg" xmlns:xlink="http://www.w3.org/1999/xlink" width="110" height="160" viewBox="0 0 110 160"><defs><style>.cls-1{isolation:isolate;}.cls-2{fill:url(#Безымянный_градиент_15);}.cls-3,.cls-4,.cls-5,.cls-6{fill-rule:evenodd;mix-blend-mode:luminosity;}.cls-3{fill:url(#Безымянный_градиент_82);}.cls-4{fill:url(#Безымянный_градиент_57);}.cls-5{fill:url(#Безымянный_градиент_84);}.cls-6{fill:url(#Безымянный_градиент_88);}.cls-7{fill:#fff;}.cls-8{font-size:28px;fill:#2e2f40;font-family:Ubuntu-Bold, Ubuntu;font-weight:700;}.cls-9{letter-spacing:-0.02em;}.cls-10{letter-spacing:0em;}</style><linearGradient id="Безымянный_градиент_15" x1="55" x2="55" y2="158.58" gradientUnits="userSpaceOnUse"><stop offset="0" stop-color="#bf88a6"/><stop offset="1" stop-color="#8563a6"/></linearGradient><linearGradient id="Безымянный_градиент_82" x1="97.79" y1="80.43" x2="110" y2="80.43" gradientUnits="userSpaceOnUse"><stop offset="0" stop-color="#926d98" stop-opacity="0"/><stop offset="0.03" stop-color="#926d98" stop-opacity="0.05"/><stop offset="0.18" stop-color="#926d96" stop-opacity="0.34"/><stop offset="0.34" stop-color="#916d94" stop-opacity="0.58"/><stop offset="0.5" stop-color="#916d93" stop-opacity="0.76"/><stop offset="0.66" stop-color="#916d92" stop-opacity="0.9"/><stop offset="0.82" stop-color="#916d91" stop-opacity="0.97"/><stop offset="1" stop-color="#916d91"/></linearGradient><linearGradient id="Безымянный_градиент_57" x1="54.7" y1="159.96" x2="54.7" y2="144.58" gradientUnits="userSpaceOnUse"><stop offset="0" stop-color="#463656"/><stop offset="0.21" stop-color="#4a395a" stop-opacity="0.95"/><stop offset="0.43" stop-color="#554166" stop-opacity="0.8"/><stop offset="0.66" stop-color="#674e7a" stop-opacity="0.55"/><stop offset="0.89" stop-color="#816196" stop-opacity="0.2"/><stop offset="1" stop-color="#8f6ca6" stop-opacity="0"/></linearGradient><linearGradient id="Безымянный_градиент_84" y1="79.67" x2="12.27" y2="79.67" gradientUnits="userSpaceOnUse"><stop offset="0" stop-color="#916d91"/><stop offset="0.18" stop-color="#916d91" stop-opacity="0.97"/><stop offset="0.34" stop-color="#916d92" stop-opacity="0.9"/><stop offset="0.5" stop-color="#916d93" stop-opacity="0.76"/><stop offset="0.66" stop-color="#916d94" stop-opacity="0.58"/><stop offset="0.82" stop-color="#926d96" stop-opacity="0.34"/><stop offset="0.97" stop-color="#926d98" stop-opacity="0.05"/><stop offset="1" stop-color="#926d98" stop-opacity="0"/></linearGradient><linearGradient id="Безымянный_градиент_88" x1="55.43" y1="-0.13" x2="55.43" y2="10.59" gradientUnits="userSpaceOnUse"><stop offset="0" stop-color="#d1b5c9"/><stop offset="0.14" stop-color="#d2b6ca" stop-opacity="0.98"/><stop offset="0.28" stop-color="#d5bbcd" stop-opacity="0.92"/><stop offset="0.42" stop-color="#d9c2d2" stop-opacity="0.83"/><stop offset="0.55" stop-color="#dfccda" stop-opacity="0.69"/><stop offset="0.69" stop-color="#e7d9e3" stop-opacity="0.52"/><stop offset="0.83" stop-color="#f1e8ee" stop-opacity="0.31"/><stop offset="0.97" stop-color="#fcfafc" stop-opacity="0.06"/><stop offset="1" stop-color="#fff" stop-opacity="0"/></linearGradient></defs><title>auto_butt</title><g class="cls-1"><g id="Слой_2" data-name="Слой 2"><g id="icons"><rect class="cls-2" width="110" height="160" rx="10"/><path class="cls-3" d="M110,10V150a10,10,0,0,1-3.08,7.21l-9.13-8.11a5.08,5.08,0,0,0,2.21-4.2V15.1a5.09,5.09,0,0,0-1.39-3.5l9.12-7.95A10,10,0,0,1,110,10Z"/><path class="cls-4" d="M106.92,157.21A9.92,9.92,0,0,1,100,160H10a10,10,0,0,1-7.51-3.4l9.13-8A5.07,5.07,0,0,0,15.1,150H94.9a5,5,0,0,0,2.89-.9Z"/><path class="cls-5" d="M10,144.9a5.08,5.08,0,0,0,1.62,3.73l-9.13,8A10,10,0,0,1,0,150V10A10,10,0,0,1,3.14,2.73l9.13,8.13A5.08,5.08,0,0,0,10,15.1Z"/><path class="cls-6" d="M107.73,3.65l-9.12,8A5.07,5.07,0,0,0,94.9,10H15.1a5.08,5.08,0,0,0-2.83.86L3.14,2.73A10,10,0,0,1,10,0h90A10,10,0,0,1,107.73,3.65Z"/><path class="cls-7" d="M92.9,17a.09.09,0,0,1,.1.1V142.9a.09.09,0,0,1-.1.1H17.1a.09.09,0,0,1-.1-.1V17.1a.09.09,0,0,1,.1-.1H92.9m0-5H17.1A5.1,5.1,0,0,0,12,17.1V142.9a5.1,5.1,0,0,0,5.1,5.1H92.9a5.1,5.1,0,0,0,5.1-5.1V17.1A5.1,5.1,0,0,0,92.9,12Z"/></g></g></g></svg>