<svg xmlns="http://www.w3.org/2000/svg" width="1920" height="1440" viewBox="0 0 1920 1440">
  <defs>
    <style>
      .cls-1 {
        fill: #2e2f40;
      }

      .cls-2 {
        fill: #242532;
        fill-rule: evenodd;
      }
    </style>
  </defs>
  <rect id="bg" class="cls-1" width="1920" height="1440"/>
  <path id="Фигура_3" data-name="Фигура 3" class="cls-2" d="M519.038,1436.39c-1.127,9.16-1.893,18.17-2.22,27.02l0.012,0.02a224.836,224.836,0,0,0,.429,25.53c0.613,7.99,2.955,18.24,5.723,28.15,2.134,7.66-7.523,13.25-13.081,7.57-7.336-7.48-15.212-14.79-21.954-19.37-114.776-78.05-347.481-59.98-381.523-207.02-33.345-144,130.38-197.92,197.841-135.52,0.838,0.78,1.775,1.71,2.744,2.74a3.921,3.921,0,0,0,6.578-3.8c-0.4-1.36-.745-2.63-0.991-3.75a87.841,87.841,0,0,1-2.116-20.95,103.757,103.757,0,0,1,5.212-30.3c23.869-73.77,125.3-134.484,213.113-52.42C625.8,1144.94,535.265,1304.94,519.038,1436.39Z"/>
  <path id="Фигура_2" data-name="Фигура 2" class="cls-2" d="M1874.97,1045.62c-0.11.27-.18,0.55-0.29,0.82,0.11-.27.27-0.51,0.38-0.79Zm-6.23,21.91a2.609,2.609,0,0,0-4.72-1.95c-65.94,93.93-283.79,94.19-296.32,223.46-8.84,91.19,71.97,126.12,129.36,109.72,9.59-2.74,17.35,8.16,11.54,16.18-11.6,16.01-21.61,26.61-29.54,33.61-7.65,6.75-5.32,19.23,4.2,23.16l27.45,11.31c9.52,3.93,19.97-3.28,19.3-13.47-0.69-10.55-.31-25.12,2.74-44.65,1.53-9.78,14.72-12.05,19.59-3.35,29.14,52.09,111.09,84.27,169.09,13.34C2003.68,1334.37,1849.31,1180.63,1868.74,1067.53Z"/>
  <path id="Фигура_1" data-name="Фигура 1" class="cls-2" d="M852.748,544.442C841.1,661.574,749.335,751.208,637.79,763.477v0.011a241.11,241.11,0,0,1-50.3.238c-68.524-6.816-127.377-41.865-166.582-92.587-13.329-17.253-40.724-5.946-38.267,15.814,6.62,58.563,17.307,98.841,27.447,125.842,8.312,22.119-9.375,45.368-32.716,43.046l-78.408-7.8c-23.341-2.322-36.1-28.587-23.607-48.637,15.248-24.464,33.654-61.862,51.669-117.963,6.694-20.838-17.936-37.32-34.4-23.029-48.415,41.98-113.018,64.739-181.543,57.922C-22.014,703.094-119.1,583.458-105.738,449.093c13.362-134.32,132.12-232.5,265.213-219.256a171.1,171.1,0,0,1,56.017,15.626c5.286,2.5,10.278-3.976,6.569-8.522-0.127-.158-0.242-0.312-0.37-0.458a254.543,254.543,0,0,1-25.923-38.725C139.05,93.333,162.281-40.374,257.024-118.7A248.448,248.448,0,0,1,608.933-83.7c87.41,107.778,71.6,266.74-35.333,355.185l-0.466.384c-5.366,4.387-.989,13.05,5.673,11.216,17.115-4.692,37.088-7.849,57.079-5.86C769.006,290.472,866.11,410.122,852.748,544.442Z"/>
</svg>
