<svg xmlns="http://www.w3.org/2000/svg" xmlns:xlink="http://www.w3.org/1999/xlink" width="250" height="80" viewBox="0 0 250 80"><defs><style>.cls-1{isolation:isolate;}.cls-2{fill:url(#Безымянный_градиент_214);}.cls-3{font-size:18px;font-family:Ubuntu-Medium, Ubuntu;font-weight:500;}.cls-3,.cls-8{fill:#2e2f40;}.cls-4,.cls-5,.cls-6,.cls-7{fill-rule:evenodd;}.cls-4,.cls-6,.cls-7{mix-blend-mode:luminosity;}.cls-4{fill:url(#Безымянный_градиент_225);}.cls-5{opacity:0.8;mix-blend-mode:hard-light;fill:url(#Безымянный_градиент_219);}.cls-6{fill:url(#Безымянный_градиент_224);}.cls-7{fill:url(#Безымянный_градиент_222);}</style><linearGradient id="Безымянный_градиент_214" x1="125" x2="125" y2="79.29" gradientUnits="userSpaceOnUse"><stop offset="0" stop-color="#8563a6"/><stop offset="1" stop-color="#6266b3"/></linearGradient><linearGradient id="Безымянный_градиент_225" x1="241.08" y1="40.43" x2="250" y2="40.43" gradientUnits="userSpaceOnUse"><stop offset="0" stop-color="#926d98" stop-opacity="0"/><stop offset="0.09" stop-color="#926d97" stop-opacity="0.21"/><stop offset="0.2" stop-color="#926d95" stop-opacity="0.45"/><stop offset="0.33" stop-color="#916d93" stop-opacity="0.65"/><stop offset="0.46" stop-color="#916d92" stop-opacity="0.81"/><stop offset="0.61" stop-color="#916d92" stop-opacity="0.92"/><stop offset="0.77" stop-color="#916d91" stop-opacity="0.98"/><stop offset="1" stop-color="#916d91"/></linearGradient><linearGradient id="Безымянный_градиент_219" x1="124.7" y1="79.97" x2="124.7" y2="68.47" gradientUnits="userSpaceOnUse"><stop offset="0" stop-color="#363438"/><stop offset="0.29" stop-color="#3c383f" stop-opacity="0.94"/><stop offset="0.54" stop-color="#4d4254" stop-opacity="0.74"/><stop offset="0.78" stop-color="#6a5478" stop-opacity="0.42"/><stop offset="1" stop-color="#8f6ca6" stop-opacity="0"/></linearGradient><linearGradient id="Безымянный_градиент_224" y1="39.67" x2="8.98" y2="39.67" gradientUnits="userSpaceOnUse"><stop offset="0" stop-color="#916d91"/><stop offset="0.35" stop-color="#916d91" stop-opacity="0.99"/><stop offset="0.51" stop-color="#916d91" stop-opacity="0.93"/><stop offset="0.63" stop-color="#916d92" stop-opacity="0.85"/><stop offset="0.73" stop-color="#916d93" stop-opacity="0.72"/><stop offset="0.82" stop-color="#916d94" stop-opacity="0.56"/><stop offset="0.9" stop-color="#926d95" stop-opacity="0.36"/><stop offset="0.97" stop-color="#926d97" stop-opacity="0.13"/><stop offset="1" stop-color="#926d98" stop-opacity="0"/></linearGradient><linearGradient id="Безымянный_градиент_222" x1="125.43" y1="-0.1" x2="125.43" y2="7.98" gradientUnits="userSpaceOnUse"><stop offset="0" stop-color="#d1b5c9"/><stop offset="0.21" stop-color="#d2b6ca" stop-opacity="0.99"/><stop offset="0.36" stop-color="#d4b9cc" stop-opacity="0.94"/><stop offset="0.48" stop-color="#d7bfd0" stop-opacity="0.87"/><stop offset="0.59" stop-color="#dcc6d6" stop-opacity="0.77"/><stop offset="0.7" stop-color="#e2d0dd" stop-opacity="0.63"/><stop offset="0.8" stop-color="#e9dce6" stop-opacity="0.47"/><stop offset="0.89" stop-color="#f2ebf0" stop-opacity="0.28"/><stop offset="0.98" stop-color="#fcfbfc" stop-opacity="0.06"/><stop offset="1" stop-color="#fff" stop-opacity="0"/></linearGradient></defs><title>cass_but</title><g class="cls-1"><g id="Слой_2" data-name="Слой 2"><g id="icons"><rect class="cls-2" width="250" height="80" rx="10"/><path class="cls-4" d="M250,10V70a10,10,0,0,1-3.08,7.21L241.08,72A4.81,4.81,0,0,0,243,68.18V11.82a4.84,4.84,0,0,0-1.11-3.08l5.84-5.09A10,10,0,0,1,250,10Z"/><path class="cls-5" d="M246.92,77.21A9.92,9.92,0,0,1,240,80H10a10,10,0,0,1-7.51-3.4l5.84-5.1A4.82,4.82,0,0,0,11.82,73H238.18a4.79,4.79,0,0,0,2.9-1Z"/><path class="cls-6" d="M7,11.82V68.18A4.76,4.76,0,0,0,8.33,71.5L2.49,76.6A10,10,0,0,1,0,70V10A10,10,0,0,1,3.14,2.73L9,7.93A4.8,4.8,0,0,0,7,11.82Z"/><path class="cls-7" d="M247.73,3.65l-5.84,5.09A4.82,4.82,0,0,0,238.18,7H11.82A4.76,4.76,0,0,0,9,7.93L3.14,2.73A10,10,0,0,1,10,0H240A10,10,0,0,1,247.73,3.65Z"/><path class="cls-8" d="M62.39,30.5a15,15,0,1,0,15,15A15,15,0,0,0,62.39,30.5Zm0,28a13,13,0,1,1,13-13A13,13,0,0,1,62.39,58.5Zm-1-17h2a1,1,0,0,1,1,1h2a3,3,0,0,0-3-3v-2h-2v2a3,3,0,0,0-3,3v.56a3,3,0,0,0,2,2.84L63.71,47a1,1,0,0,1,.68.95v.56a1,1,0,0,1-1,1h-2a1,1,0,0,1-1-1h-2a3,3,0,0,0,3,3v2h2v-2a3,3,0,0,0,3-3v-.56a3,3,0,0,0-2-2.84L61.07,44a1,1,0,0,1-.68-.95V42.5A1,1,0,0,1,61.39,41.5Zm-8,5h2v-2h-2Zm16,0h2v-2h-2ZM46.5,48.4a16.94,16.94,0,0,1-9.4-4.19l2.83-2.83a12.91,12.91,0,0,0,6.3,2.94l.33-2A11,11,0,1,1,59.24,29.67l2-.33A12.91,12.91,0,0,0,58.27,23l2.83-2.83a16.94,16.94,0,0,1,4.19,9.4l2-.22a19,19,0,1,0-21,21Zm2.89-33.85a17,17,0,0,1,10.3,4.24l-2.83,2.83a13,13,0,0,0-7.47-3.08Zm-2,0v4a13,13,0,0,0-7.45,3.09l-2.82-2.83A16.92,16.92,0,0,1,47.39,14.55ZM35.7,20.23l2.83,2.82a13,13,0,0,0-3.09,7.45h-4A16.92,16.92,0,0,1,35.7,20.23ZM31.44,32.5h4A13,13,0,0,0,38.51,40L35.68,42.8A17,17,0,0,1,31.44,32.5Zm15.71,24a4,4,0,0,1-5.4-1.74l-.27-.53,1.75.57.61-1.91-5-1.61-1.58,5,1.9.6.56-1.74.27.53a6,6,0,0,0,5.36,3.26,5.94,5.94,0,0,0,2.73-.66l1.78-.92-.92-1.78Zm25.31-30-.11.58-1-1.5L69.67,26.7l3,4.32L77,28l-1.14-1.64-1.5,1,.1-.58a6,6,0,0,0-4.82-7l-2-.35-.36,2,2,.36A4,4,0,0,1,72.46,26.49Z"/></g></g></g></svg>