<svg xmlns="http://www.w3.org/2000/svg" xmlns:xlink="http://www.w3.org/1999/xlink" width="250" height="80"  viewBox="0 0 250 80"><defs><style>.cls-1{isolation:isolate;}.cls-2{fill:url(#Безымянный_градиент_214);}.cls-3{font-size:18px;font-family:Ubuntu-Medium, Ubuntu;font-weight:500;}.cls-3,.cls-9{fill:#2e2f40;}.cls-4{letter-spacing:-0.02em;}.cls-5,.cls-6,.cls-7,.cls-8{fill-rule:evenodd;}.cls-5,.cls-7,.cls-8{mix-blend-mode:luminosity;}.cls-5{fill:url(#Безымянный_градиент_225);}.cls-6{opacity:0.8;mix-blend-mode:hard-light;fill:url(#Безымянный_градиент_219);}.cls-7{fill:url(#Безымянный_градиент_224);}.cls-8{fill:url(#Безымянный_градиент_222);}</style><linearGradient id="Безымянный_градиент_214" x1="125" x2="125" y2="79.29" gradientUnits="userSpaceOnUse"><stop offset="0" stop-color="#8563a6"/><stop offset="1" stop-color="#6266b3"/></linearGradient><linearGradient id="Безымянный_градиент_225" x1="241.08" y1="40.43" x2="250" y2="40.43" gradientUnits="userSpaceOnUse"><stop offset="0" stop-color="#926d98" stop-opacity="0"/><stop offset="0.09" stop-color="#926d97" stop-opacity="0.21"/><stop offset="0.2" stop-color="#926d95" stop-opacity="0.45"/><stop offset="0.33" stop-color="#916d93" stop-opacity="0.65"/><stop offset="0.46" stop-color="#916d92" stop-opacity="0.81"/><stop offset="0.61" stop-color="#916d92" stop-opacity="0.92"/><stop offset="0.77" stop-color="#916d91" stop-opacity="0.98"/><stop offset="1" stop-color="#916d91"/></linearGradient><linearGradient id="Безымянный_градиент_219" x1="124.7" y1="79.97" x2="124.7" y2="68.47" gradientUnits="userSpaceOnUse"><stop offset="0" stop-color="#363438"/><stop offset="0.29" stop-color="#3c383f" stop-opacity="0.94"/><stop offset="0.54" stop-color="#4d4254" stop-opacity="0.74"/><stop offset="0.78" stop-color="#6a5478" stop-opacity="0.42"/><stop offset="1" stop-color="#8f6ca6" stop-opacity="0"/></linearGradient><linearGradient id="Безымянный_градиент_224" y1="39.67" x2="8.98" y2="39.67" gradientUnits="userSpaceOnUse"><stop offset="0" stop-color="#916d91"/><stop offset="0.35" stop-color="#916d91" stop-opacity="0.99"/><stop offset="0.51" stop-color="#916d91" stop-opacity="0.93"/><stop offset="0.63" stop-color="#916d92" stop-opacity="0.85"/><stop offset="0.73" stop-color="#916d93" stop-opacity="0.72"/><stop offset="0.82" stop-color="#916d94" stop-opacity="0.56"/><stop offset="0.9" stop-color="#926d95" stop-opacity="0.36"/><stop offset="0.97" stop-color="#926d97" stop-opacity="0.13"/><stop offset="1" stop-color="#926d98" stop-opacity="0"/></linearGradient><linearGradient id="Безымянный_градиент_222" x1="125.43" y1="-0.1" x2="125.43" y2="7.98" gradientUnits="userSpaceOnUse"><stop offset="0" stop-color="#d1b5c9"/><stop offset="0.21" stop-color="#d2b6ca" stop-opacity="0.99"/><stop offset="0.36" stop-color="#d4b9cc" stop-opacity="0.94"/><stop offset="0.48" stop-color="#d7bfd0" stop-opacity="0.87"/><stop offset="0.59" stop-color="#dcc6d6" stop-opacity="0.77"/><stop offset="0.7" stop-color="#e2d0dd" stop-opacity="0.63"/><stop offset="0.8" stop-color="#e9dce6" stop-opacity="0.47"/><stop offset="0.89" stop-color="#f2ebf0" stop-opacity="0.28"/><stop offset="0.98" stop-color="#fcfbfc" stop-opacity="0.06"/><stop offset="1" stop-color="#fff" stop-opacity="0"/></linearGradient></defs><title>exit_butt</title><g class="cls-1"><g id="Слой_2" data-name="Слой 2"><g id="icons"><rect class="cls-2" width="250" height="80" rx="10"/><path class="cls-5" d="M250,10V70a10,10,0,0,1-3.08,7.21L241.08,72A4.81,4.81,0,0,0,243,68.18V11.82a4.84,4.84,0,0,0-1.11-3.08l5.84-5.09A10,10,0,0,1,250,10Z"/><path class="cls-6" d="M246.92,77.21A9.92,9.92,0,0,1,240,80H10a10,10,0,0,1-7.51-3.4l5.84-5.1A4.82,4.82,0,0,0,11.82,73H238.18a4.79,4.79,0,0,0,2.9-1Z"/><path class="cls-7" d="M7,11.82V68.18A4.76,4.76,0,0,0,8.33,71.5L2.49,76.6A10,10,0,0,1,0,70V10A10,10,0,0,1,3.14,2.73L9,7.93A4.8,4.8,0,0,0,7,11.82Z"/><path class="cls-8" d="M247.73,3.65l-5.84,5.09A4.82,4.82,0,0,0,238.18,7H11.82A4.76,4.76,0,0,0,9,7.93L3.14,2.73A10,10,0,0,1,10,0H240A10,10,0,0,1,247.73,3.65Z"/><path class="cls-9" d="M67.28,30.49a4.24,4.24,0,0,0-4.51.47C61.4,32,60.51,34.5,60,36.49a6.25,6.25,0,0,1-.6-2V20a3.5,3.5,0,0,0-3.5-3.5,3.45,3.45,0,0,0-1.5.35V16a3.49,3.49,0,0,0-7-.14,3.48,3.48,0,0,0-5,3.14v.66a3.13,3.13,0,0,0-1-.16,4,4,0,0,0-4,4,.57.57,0,0,0,0,.13V48.5a7,7,0,0,0,3,5.47V59.5h2V55.2a14.06,14.06,0,0,0,6,1.3,15.18,15.18,0,0,0,2.14-.15l-.28-2a12.73,12.73,0,0,1-1.86.13c-5,0-9-2.69-9-6v-25a.41.41,0,0,0,0-.11,2,2,0,0,1,2-1.89c.47,0,1,0,1,2v10h2V19a1.5,1.5,0,0,1,3,0V33.5h2V19a4,4,0,0,0,0-.5h0V16a1.5,1.5,0,0,1,3,0V33.5h2V20a1.5,1.5,0,0,1,3,0V34.5a11.23,11.23,0,0,0,1.39,4.12c-5.9.76-9.9,5.53-10.37,7.67l2,.42c.28-1.27,4.05-6.21,10-6.21h.19a1,1,0,0,0,.8-.83c.32-2.21,1.33-6.09,2.63-7.12a2.22,2.22,0,0,1,2.39-.24,1.65,1.65,0,0,1,1,1.12C65.81,39.94,64,47.23,63.63,47.93a19.44,19.44,0,0,1-1.84,1.83c-2.58,2.37-4.4,4.16-4.4,5.74v4h2v-4c0-.82,2.63-3.24,3.75-4.27A14.75,14.75,0,0,0,65.32,49c.51-.81,2.75-9.92,4-15.28a.85.85,0,0,0,0-.23A3.47,3.47,0,0,0,67.28,30.49Z"/></g></g></g></svg>