<svg xmlns="http://www.w3.org/2000/svg" xmlns:xlink="http://www.w3.org/1999/xlink" width="250" height="80" viewBox="0 0 250 80"><defs><style>.cls-1{isolation:isolate;}.cls-2{fill:url(#Безымянный_градиент_214);}.cls-3{font-size:18px;font-family:Ubuntu-Medium, Ubuntu;font-weight:500;}.cls-3,.cls-8{fill:#2e2f40;}.cls-4,.cls-5,.cls-6,.cls-7{fill-rule:evenodd;}.cls-4,.cls-6,.cls-7{mix-blend-mode:luminosity;}.cls-4{fill:url(#Безымянный_градиент_225);}.cls-5{opacity:0.8;mix-blend-mode:hard-light;fill:url(#Безымянный_градиент_219);}.cls-6{fill:url(#Безымянный_градиент_224);}.cls-7{fill:url(#Безымянный_градиент_222);}</style><linearGradient id="Безымянный_градиент_214" x1="125" x2="125" y2="79.29" gradientUnits="userSpaceOnUse"><stop offset="0" stop-color="#8563a6"/><stop offset="1" stop-color="#6266b3"/></linearGradient><linearGradient id="Безымянный_градиент_225" x1="241.08" y1="40.43" x2="250" y2="40.43" gradientUnits="userSpaceOnUse"><stop offset="0" stop-color="#926d98" stop-opacity="0"/><stop offset="0.09" stop-color="#926d97" stop-opacity="0.21"/><stop offset="0.2" stop-color="#926d95" stop-opacity="0.45"/><stop offset="0.33" stop-color="#916d93" stop-opacity="0.65"/><stop offset="0.46" stop-color="#916d92" stop-opacity="0.81"/><stop offset="0.61" stop-color="#916d92" stop-opacity="0.92"/><stop offset="0.77" stop-color="#916d91" stop-opacity="0.98"/><stop offset="1" stop-color="#916d91"/></linearGradient><linearGradient id="Безымянный_градиент_219" x1="124.7" y1="79.97" x2="124.7" y2="68.47" gradientUnits="userSpaceOnUse"><stop offset="0" stop-color="#363438"/><stop offset="0.29" stop-color="#3c383f" stop-opacity="0.94"/><stop offset="0.54" stop-color="#4d4254" stop-opacity="0.74"/><stop offset="0.78" stop-color="#6a5478" stop-opacity="0.42"/><stop offset="1" stop-color="#8f6ca6" stop-opacity="0"/></linearGradient><linearGradient id="Безымянный_градиент_224" y1="39.67" x2="8.98" y2="39.67" gradientUnits="userSpaceOnUse"><stop offset="0" stop-color="#916d91"/><stop offset="0.35" stop-color="#916d91" stop-opacity="0.99"/><stop offset="0.51" stop-color="#916d91" stop-opacity="0.93"/><stop offset="0.63" stop-color="#916d92" stop-opacity="0.85"/><stop offset="0.73" stop-color="#916d93" stop-opacity="0.72"/><stop offset="0.82" stop-color="#916d94" stop-opacity="0.56"/><stop offset="0.9" stop-color="#926d95" stop-opacity="0.36"/><stop offset="0.97" stop-color="#926d97" stop-opacity="0.13"/><stop offset="1" stop-color="#926d98" stop-opacity="0"/></linearGradient><linearGradient id="Безымянный_градиент_222" x1="125.43" y1="-0.1" x2="125.43" y2="7.98" gradientUnits="userSpaceOnUse"><stop offset="0" stop-color="#d1b5c9"/><stop offset="0.21" stop-color="#d2b6ca" stop-opacity="0.99"/><stop offset="0.36" stop-color="#d4b9cc" stop-opacity="0.94"/><stop offset="0.48" stop-color="#d7bfd0" stop-opacity="0.87"/><stop offset="0.59" stop-color="#dcc6d6" stop-opacity="0.77"/><stop offset="0.7" stop-color="#e2d0dd" stop-opacity="0.63"/><stop offset="0.8" stop-color="#e9dce6" stop-opacity="0.47"/><stop offset="0.89" stop-color="#f2ebf0" stop-opacity="0.28"/><stop offset="0.98" stop-color="#fcfbfc" stop-opacity="0.06"/><stop offset="1" stop-color="#fff" stop-opacity="0"/></linearGradient></defs><title>game_butt</title><g class="cls-1"><g id="Слой_2" data-name="Слой 2"><g id="icons"><rect class="cls-2" width="250" height="80" rx="10"/><path class="cls-4" d="M250,10V70a10,10,0,0,1-3.08,7.21L241.08,72A4.81,4.81,0,0,0,243,68.18V11.82a4.84,4.84,0,0,0-1.11-3.08l5.84-5.09A10,10,0,0,1,250,10Z"/><path class="cls-5" d="M246.92,77.21A9.92,9.92,0,0,1,240,80H10a10,10,0,0,1-7.51-3.4l5.84-5.1A4.82,4.82,0,0,0,11.82,73H238.18a4.79,4.79,0,0,0,2.9-1Z"/><path class="cls-6" d="M7,11.82V68.18A4.76,4.76,0,0,0,8.33,71.5L2.49,76.6A10,10,0,0,1,0,70V10A10,10,0,0,1,3.14,2.73L9,7.93A4.8,4.8,0,0,0,7,11.82Z"/><path class="cls-7" d="M247.73,3.65l-5.84,5.09A4.82,4.82,0,0,0,238.18,7H11.82A4.76,4.76,0,0,0,9,7.93L3.14,2.73A10,10,0,0,1,10,0H240A10,10,0,0,1,247.73,3.65Z"/><rect class="cls-8" x="65.75" y="21.58" width="2.01" height="1.99"/><rect class="cls-8" x="37.55" y="35.53" width="2.01" height="1.99"/><rect class="cls-8" x="35.54" y="43.5" width="2.01" height="1.99"/><path class="cls-8" d="M50.41,53.35a.39.39,0,0,1-.33.15L37.37,52.31l-.17,0q-.26,0-.42-.39L31.54,40.49a.3.3,0,0,1,.07-.36L39,29.84l.09-.11a.41.41,0,0,1,.31-.15l9.11.86.2-2-9.12-.85a2.38,2.38,0,0,0-2,.81L30.13,38.78a2.28,2.28,0,0,0-.42,2.54L35,52.73a2.54,2.54,0,0,0,1.88,1.52l13.06,1.24h.22a2.43,2.43,0,0,0,1.94-1l6.46-9-1.64-1.16Z"/><rect class="cls-8" x="55.68" y="24.57" width="2.01" height="1.99"/><polygon class="cls-8" points="46.08 42.5 51.65 42.5 51.65 40.51 46.21 40.51 40.91 30.7 39.14 31.64 44.4 41.38 37.42 49.52 38.96 50.81 46.08 42.5"/><rect class="cls-8" x="65.75" y="37.52" width="2.01" height="1.99"/><rect class="cls-8" x="70.79" y="30.55" width="2.01" height="1.99"/><polygon class="cls-8" points="64.95 19.45 62.95 19.23 61.79 29.86 52.41 33.87 53.21 35.7 62.61 31.68 71.53 37.87 72.69 36.24 63.8 30.07 64.95 19.45"/><path class="cls-8" d="M77.27,25.25a2.88,2.88,0,0,0-.06-.47,3,3,0,0,0-.15-.42,2.88,2.88,0,0,0-.22-.38,1.61,1.61,0,0,0-.27-.29l-.15-.17L65.76,16a2.47,2.47,0,0,0-2.32-.22L51.9,21a2.33,2.33,0,0,0-1.65,2L49.13,35.48a2.36,2.36,0,0,0,0,.29,2.06,2.06,0,0,0,0,.43,1.59,1.59,0,0,0,.09.39,1.33,1.33,0,0,0,.1.36l.13.21c.07.11.15.2.22.29a2.62,2.62,0,0,0,.24.26l10.72,7.56a2.42,2.42,0,0,0,1.39.54,1.74,1.74,0,0,0,.71-.15l11.9-5.39a2.29,2.29,0,0,0,1.54-2l1.15-12.74A.74.74,0,0,0,77.27,25.25Zm-2,.07s0,.09,0,.13L74.13,38.09c0,.19,0,.21-.37.37L62,43.79l-.21-.14L51.33,36.32l-.2-.19,0-.11,1.16-12.81a.32.32,0,0,1,.25-.27l.16-.06,11.59-5.25a.42.42,0,0,1,.34,0L75.07,25l.16.19.91-.42Z"/><rect class="cls-8" x="61.72" y="34.53" width="2.01" height="1.99"/><rect class="cls-8" x="57.69" y="36.53" width="2.01" height="1.99"/><rect class="cls-8" x="61.72" y="39.51" width="2.01" height="1.99"/></g></g></g></svg>