<svg xmlns="http://www.w3.org/2000/svg" xmlns:xlink="http://www.w3.org/1999/xlink" width="140" height="140" viewBox="0 0 140 140.03"><defs><style>.cls-1{isolation:isolate;}.cls-2{fill:url(#Безымянный_градиент_210);}.cls-3{mix-blend-mode:hard-light;}.cls-4{fill:url(#Безымянный_градиент_207);}.cls-5{opacity:0.15;}.cls-10,.cls-11,.cls-12,.cls-13,.cls-14,.cls-15,.cls-16,.cls-17,.cls-18,.cls-19,.cls-20,.cls-21,.cls-22,.cls-23,.cls-24,.cls-25,.cls-26,.cls-27,.cls-28,.cls-29,.cls-30,.cls-31,.cls-32,.cls-33,.cls-34,.cls-35,.cls-36,.cls-37,.cls-38,.cls-39,.cls-40,.cls-41,.cls-42,.cls-43,.cls-44,.cls-45,.cls-46,.cls-47,.cls-48,.cls-49,.cls-50,.cls-51,.cls-52,.cls-53,.cls-54,.cls-55,.cls-56,.cls-57,.cls-58,.cls-59,.cls-6,.cls-60,.cls-61,.cls-62,.cls-63,.cls-64,.cls-65,.cls-66,.cls-67,.cls-68,.cls-69,.cls-7,.cls-70,.cls-71,.cls-72,.cls-73,.cls-74,.cls-75,.cls-76,.cls-77,.cls-78,.cls-79,.cls-8,.cls-80,.cls-81,.cls-82,.cls-83,.cls-84,.cls-85,.cls-86,.cls-87,.cls-88,.cls-89,.cls-9,.cls-90,.cls-91,.cls-92,.cls-93{mix-blend-mode:luminosity;}.cls-6{fill:url(#Безымянный_градиент_206);}.cls-7{fill:url(#Безымянный_градиент_206-2);}.cls-8{fill:url(#Безымянный_градиент_206-3);}.cls-9{fill:url(#Безымянный_градиент_206-4);}.cls-10{fill:url(#Безымянный_градиент_206-5);}.cls-11{fill:url(#Безымянный_градиент_206-6);}.cls-12{fill:url(#Безымянный_градиент_206-7);}.cls-13{fill:url(#Безымянный_градиент_206-8);}.cls-14{fill:url(#Безымянный_градиент_206-9);}.cls-15{fill:url(#Безымянный_градиент_206-10);}.cls-16{fill:url(#Безымянный_градиент_206-11);}.cls-17{fill:url(#Безымянный_градиент_206-12);}.cls-18{fill:url(#Безымянный_градиент_206-13);}.cls-19{fill:url(#Безымянный_градиент_206-14);}.cls-20{fill:url(#Безымянный_градиент_206-15);}.cls-21{fill:url(#Безымянный_градиент_206-16);}.cls-22{fill:url(#Безымянный_градиент_206-17);}.cls-23{fill:url(#Безымянный_градиент_206-18);}.cls-24{fill:url(#Безымянный_градиент_206-19);}.cls-25{fill:url(#Безымянный_градиент_206-20);}.cls-26{fill:url(#Безымянный_градиент_206-21);}.cls-27{fill:url(#Безымянный_градиент_206-22);}.cls-28{fill:url(#Безымянный_градиент_206-23);}.cls-29{fill:url(#Безымянный_градиент_206-24);}.cls-30{fill:url(#Безымянный_градиент_206-25);}.cls-31{fill:url(#Безымянный_градиент_206-26);}.cls-32{fill:url(#Безымянный_градиент_206-27);}.cls-33{fill:url(#Безымянный_градиент_206-28);}.cls-34{fill:url(#Безымянный_градиент_206-29);}.cls-35{fill:url(#Безымянный_градиент_206-30);}.cls-36{fill:url(#Безымянный_градиент_206-31);}.cls-37{fill:url(#Безымянный_градиент_206-32);}.cls-38{fill:url(#Безымянный_градиент_206-33);}.cls-39{fill:url(#Безымянный_градиент_206-34);}.cls-40{fill:url(#Безымянный_градиент_206-35);}.cls-41{fill:url(#Безымянный_градиент_206-36);}.cls-42{fill:url(#Безымянный_градиент_206-37);}.cls-43{fill:url(#Безымянный_градиент_206-38);}.cls-44{fill:url(#Безымянный_градиент_206-39);}.cls-45{fill:url(#Безымянный_градиент_206-40);}.cls-46{fill:url(#Безымянный_градиент_206-41);}.cls-47{fill:url(#Безымянный_градиент_206-42);}.cls-48{fill:url(#Безымянный_градиент_206-43);}.cls-49{fill:url(#Безымянный_градиент_206-44);}.cls-50{fill:url(#Безымянный_градиент_206-45);}.cls-51{fill:url(#Безымянный_градиент_206-46);}.cls-52{fill:url(#Безымянный_градиент_206-47);}.cls-53{fill:url(#Безымянный_градиент_206-48);}.cls-54{fill:url(#Безымянный_градиент_206-49);}.cls-55{fill:url(#Безымянный_градиент_206-50);}.cls-56{fill:url(#Безымянный_градиент_206-51);}.cls-57{fill:url(#Безымянный_градиент_206-52);}.cls-58{fill:url(#Безымянный_градиент_206-53);}.cls-59{fill:url(#Безымянный_градиент_206-54);}.cls-60{fill:url(#Безымянный_градиент_206-55);}.cls-61{fill:url(#Безымянный_градиент_206-56);}.cls-62{fill:url(#Безымянный_градиент_206-57);}.cls-63{fill:url(#Безымянный_градиент_206-58);}.cls-64{fill:url(#Безымянный_градиент_206-59);}.cls-65{fill:url(#Безымянный_градиент_206-60);}.cls-66{fill:url(#Безымянный_градиент_206-61);}.cls-67{fill:url(#Безымянный_градиент_206-62);}.cls-68{fill:url(#Безымянный_градиент_206-63);}.cls-69{fill:url(#Безымянный_градиент_206-64);}.cls-70{fill:url(#Безымянный_градиент_206-65);}.cls-71{fill:url(#Безымянный_градиент_206-66);}.cls-72{fill:url(#Безымянный_градиент_206-67);}.cls-73{fill:url(#Безымянный_градиент_206-68);}.cls-74{fill:url(#Безымянный_градиент_206-69);}.cls-75{fill:url(#Безымянный_градиент_206-70);}.cls-76{fill:url(#Безымянный_градиент_206-71);}.cls-77{fill:url(#Безымянный_градиент_206-72);}.cls-78{fill:url(#Безымянный_градиент_206-73);}.cls-79{fill:url(#Безымянный_градиент_206-74);}.cls-80{fill:url(#Безымянный_градиент_206-75);}.cls-81{fill:url(#Безымянный_градиент_206-76);}.cls-82{fill:url(#Безымянный_градиент_206-77);}.cls-83{fill:url(#Безымянный_градиент_206-78);}.cls-84{fill:url(#Безымянный_градиент_206-79);}.cls-85{fill:url(#Безымянный_градиент_206-80);}.cls-86{fill:url(#Безымянный_градиент_206-81);}.cls-87{fill:url(#Безымянный_градиент_206-82);}.cls-88{fill:url(#Безымянный_градиент_206-83);}.cls-89{fill:url(#Безымянный_градиент_206-84);}.cls-90{fill:url(#Безымянный_градиент_206-85);}.cls-91{fill:url(#Безымянный_градиент_206-86);}.cls-92{fill:url(#Безымянный_градиент_206-87);}.cls-93{fill:url(#Безымянный_градиент_206-88);}.cls-94{font-size:36px;fill:#2e2f40;font-family:Ubuntu-Bold, Ubuntu;font-weight:700;}</style><radialGradient id="Безымянный_градиент_210" cx="70" cy="70.03" r="70" gradientUnits="userSpaceOnUse"><stop offset="0" stop-color="#bf88a6"/><stop offset="0.38" stop-color="#bd86a6"/><stop offset="0.59" stop-color="#b481a6"/><stop offset="0.77" stop-color="#a678a6"/><stop offset="0.92" stop-color="#936ca6"/><stop offset="1" stop-color="#8563a6"/></radialGradient><linearGradient id="Безымянный_градиент_207" x1="70" y1="-0.27" x2="70" y2="139.97" gradientUnits="userSpaceOnUse"><stop offset="0" stop-color="#fff" stop-opacity="0.5"/><stop offset="0.19" stop-color="#cbcacc" stop-opacity="0.58"/><stop offset="0.54" stop-color="#78757c" stop-opacity="0.7"/><stop offset="0.82" stop-color="#45404a" stop-opacity="0.77"/><stop offset="1" stop-color="#322d38" stop-opacity="0.8"/></linearGradient><linearGradient id="Безымянный_градиент_206" x1="1828.52" y1="-537.13" x2="1828.52" y2="-348.71" gradientTransform="translate(1681.29 1052.2) rotate(-135)" gradientUnits="userSpaceOnUse"><stop offset="0" stop-color="#fff" stop-opacity="0.5"/><stop offset="0.41" stop-color="#aaa3b3" stop-opacity="0.66"/><stop offset="0.77" stop-color="#706580" stop-opacity="0.76"/><stop offset="1" stop-color="#5b4e6d" stop-opacity="0.8"/></linearGradient><linearGradient id="Безымянный_градиент_206-2" x1="1857.51" y1="-537.14" x2="1857.51" y2="-348.71" xlink:href="#Безымянный_градиент_206"/><linearGradient id="Безымянный_градиент_206-3" x1="1845.49" y1="-537.14" x2="1845.49" y2="-348.71" xlink:href="#Безымянный_градиент_206"/><linearGradient id="Безымянный_градиент_206-4" x1="1872.49" y1="-537.14" x2="1872.49" y2="-348.71" xlink:href="#Безымянный_градиент_206"/><linearGradient id="Безымянный_градиент_206-5" x1="1868.84" y1="-537.13" x2="1868.84" y2="-348.71" xlink:href="#Безымянный_градиент_206"/><linearGradient id="Безымянный_градиент_206-6" x1="1861.41" y1="-537.14" x2="1861.41" y2="-348.71" xlink:href="#Безымянный_градиент_206"/><linearGradient id="Безымянный_градиент_206-7" x1="1809" y1="-537.14" x2="1809" y2="-348.71" xlink:href="#Безымянный_градиент_206"/><linearGradient id="Безымянный_градиент_206-8" x1="1820.13" y1="-537.14" x2="1820.13" y2="-348.71" xlink:href="#Безымянный_градиент_206"/><linearGradient id="Безымянный_градиент_206-9" x1="1840.98" y1="-537.14" x2="1840.98" y2="-348.71" xlink:href="#Безымянный_градиент_206"/><linearGradient id="Безымянный_градиент_206-10" x1="1813.71" y1="-537.14" x2="1813.71" y2="-348.71" xlink:href="#Безымянный_градиент_206"/><linearGradient id="Безымянный_градиент_206-11" x1="1903.26" y1="-537.14" x2="1903.26" y2="-348.7" xlink:href="#Безымянный_градиент_206"/><linearGradient id="Безымянный_градиент_206-12" x1="1898.59" y1="-537.14" x2="1898.59" y2="-348.71" xlink:href="#Безымянный_градиент_206"/><linearGradient id="Безымянный_градиент_206-13" x1="1895.93" y1="-537.14" x2="1895.93" y2="-348.71" xlink:href="#Безымянный_градиент_206"/><linearGradient id="Безымянный_градиент_206-14" x1="1836.55" y1="-537.14" x2="1836.55" y2="-348.71" xlink:href="#Безымянный_градиент_206"/><linearGradient id="Безымянный_градиент_206-15" x1="1888.92" y1="-537.14" x2="1888.92" y2="-348.71" xlink:href="#Безымянный_градиент_206"/><linearGradient id="Безымянный_градиент_206-16" x1="1902.11" y1="-537.14" x2="1902.11" y2="-348.71" xlink:href="#Безымянный_градиент_206"/><linearGradient id="Безымянный_градиент_206-17" x1="1874.6" y1="-537.14" x2="1874.6" y2="-348.71" xlink:href="#Безымянный_градиент_206"/><linearGradient id="Безымянный_градиент_206-18" x1="1882.58" y1="-537.14" x2="1882.58" y2="-348.71" xlink:href="#Безымянный_градиент_206"/><linearGradient id="Безымянный_градиент_206-19" x1="1876.38" y1="-537.14" x2="1876.38" y2="-348.71" xlink:href="#Безымянный_градиент_206"/><linearGradient id="Безымянный_градиент_206-20" x1="1884.99" y1="-537.14" x2="1884.99" y2="-348.71" xlink:href="#Безымянный_градиент_206"/><linearGradient id="Безымянный_градиент_206-21" x1="1884.99" y1="-537.14" x2="1884.99" y2="-348.71" xlink:href="#Безымянный_градиент_206"/><linearGradient id="Безымянный_градиент_206-22" x1="1806.87" y1="-537.14" x2="1806.87" y2="-348.71" xlink:href="#Безымянный_градиент_206"/><linearGradient id="Безымянный_градиент_206-23" x1="1768.1" y1="-537.14" x2="1768.1" y2="-348.71" xlink:href="#Безымянный_градиент_206"/><linearGradient id="Безымянный_градиент_206-24" x1="1767.93" y1="-537.14" x2="1767.93" y2="-348.71" xlink:href="#Безымянный_градиент_206"/><linearGradient id="Безымянный_градиент_206-25" x1="1777.92" y1="-537.14" x2="1777.92" y2="-348.71" xlink:href="#Безымянный_градиент_206"/><linearGradient id="Безымянный_градиент_206-26" x1="1781.92" y1="-537.14" x2="1781.92" y2="-348.71" xlink:href="#Безымянный_градиент_206"/><linearGradient id="Безымянный_градиент_206-27" x1="1773.29" y1="-537.14" x2="1773.29" y2="-348.71" xlink:href="#Безымянный_градиент_206"/><linearGradient id="Безымянный_градиент_206-28" x1="1771.46" y1="-537.14" x2="1771.46" y2="-348.71" xlink:href="#Безымянный_градиент_206"/><linearGradient id="Безымянный_градиент_206-29" x1="1893.09" y1="-537.14" x2="1893.09" y2="-348.71" xlink:href="#Безымянный_градиент_206"/><linearGradient id="Безымянный_градиент_206-30" x1="1865.72" y1="-537.14" x2="1865.72" y2="-348.71" xlink:href="#Безымянный_градиент_206"/><linearGradient id="Безымянный_градиент_206-31" x1="1832.65" y1="-537.14" x2="1832.65" y2="-348.71" xlink:href="#Безымянный_градиент_206"/><linearGradient id="Безымянный_градиент_206-32" x1="1895.78" y1="-537.14" x2="1895.78" y2="-348.71" xlink:href="#Безымянный_градиент_206"/><linearGradient id="Безымянный_градиент_206-33" x1="1782.66" y1="-537.14" x2="1782.66" y2="-348.71" xlink:href="#Безымянный_градиент_206"/><linearGradient id="Безымянный_градиент_206-34" x1="1901.46" y1="-537.14" x2="1901.46" y2="-348.7" xlink:href="#Безымянный_градиент_206"/><linearGradient id="Безымянный_градиент_206-35" x1="1786.29" y1="-537.14" x2="1786.29" y2="-348.71" xlink:href="#Безымянный_градиент_206"/><linearGradient id="Безымянный_градиент_206-36" x1="1824.84" y1="-537.14" x2="1824.84" y2="-348.71" xlink:href="#Безымянный_градиент_206"/><linearGradient id="Безымянный_градиент_206-37" x1="1849.55" y1="-537.14" x2="1849.55" y2="-348.71" xlink:href="#Безымянный_градиент_206"/><linearGradient id="Безымянный_градиент_206-38" x1="1799.82" y1="-537.14" x2="1799.82" y2="-348.71" xlink:href="#Безымянный_градиент_206"/><linearGradient id="Безымянный_градиент_206-39" x1="1802.42" y1="-537.14" x2="1802.42" y2="-348.71" xlink:href="#Безымянный_градиент_206"/><linearGradient id="Безымянный_градиент_206-40" x1="1790.39" y1="-537.14" x2="1790.39" y2="-348.71" xlink:href="#Безымянный_градиент_206"/><linearGradient id="Безымянный_градиент_206-41" x1="1795.98" y1="-537.14" x2="1795.98" y2="-348.71" xlink:href="#Безымянный_градиент_206"/><linearGradient id="Безымянный_градиент_206-42" x1="1789.9" y1="-537.14" x2="1789.9" y2="-348.71" xlink:href="#Безымянный_градиент_206"/><linearGradient id="Безымянный_градиент_206-43" x1="1792.38" y1="-537.11" x2="1792.38" y2="-348.72" xlink:href="#Безымянный_градиент_206"/><linearGradient id="Безымянный_градиент_206-44" x1="1894.23" y1="-537.14" x2="1894.23" y2="-348.7" xlink:href="#Безымянный_градиент_206"/><linearGradient id="Безымянный_градиент_206-45" x1="1898.83" y1="-537.14" x2="1898.83" y2="-348.71" xlink:href="#Безымянный_градиент_206"/><linearGradient id="Безымянный_градиент_206-46" x1="1771.19" y1="-537.14" x2="1771.19" y2="-348.71" xlink:href="#Безымянный_градиент_206"/><linearGradient id="Безымянный_градиент_206-47" x1="1894.9" y1="-537.14" x2="1894.9" y2="-348.71" xlink:href="#Безымянный_градиент_206"/><linearGradient id="Безымянный_градиент_206-48" x1="1889.98" y1="-537.14" x2="1889.98" y2="-348.71" xlink:href="#Безымянный_градиент_206"/><linearGradient id="Безымянный_градиент_206-49" x1="1893.12" y1="-537.14" x2="1893.12" y2="-348.71" xlink:href="#Безымянный_градиент_206"/><linearGradient id="Безымянный_градиент_206-50" x1="1767.58" y1="-537.14" x2="1767.58" y2="-348.71" xlink:href="#Безымянный_градиент_206"/><linearGradient id="Безымянный_градиент_206-51" x1="1769.26" y1="-537.14" x2="1769.26" y2="-348.71" xlink:href="#Безымянный_градиент_206"/><linearGradient id="Безымянный_градиент_206-52" x1="1769.18" y1="-537.14" x2="1769.18" y2="-348.71" xlink:href="#Безымянный_градиент_206"/><linearGradient id="Безымянный_градиент_206-53" x1="1768.67" y1="-537.14" x2="1768.67" y2="-348.71" xlink:href="#Безымянный_градиент_206"/><linearGradient id="Безымянный_градиент_206-54" x1="1902.65" y1="-537.14" x2="1902.65" y2="-348.7" xlink:href="#Безымянный_градиент_206"/><linearGradient id="Безымянный_градиент_206-55" x1="1891.05" y1="-537.14" x2="1891.05" y2="-348.71" xlink:href="#Безымянный_градиент_206"/><linearGradient id="Безымянный_градиент_206-56" x1="1901.32" y1="-537.14" x2="1901.32" y2="-348.71" xlink:href="#Безымянный_градиент_206"/><linearGradient id="Безымянный_градиент_206-57" x1="1854.12" y1="-537.14" x2="1854.12" y2="-348.71" xlink:href="#Безымянный_градиент_206"/><linearGradient id="Безымянный_градиент_206-58" x1="1856.41" y1="-537.14" x2="1856.41" y2="-348.71" xlink:href="#Безымянный_градиент_206"/><linearGradient id="Безымянный_градиент_206-59" x1="1851.91" y1="-537.14" x2="1851.91" y2="-348.71" xlink:href="#Безымянный_градиент_206"/><linearGradient id="Безымянный_градиент_206-60" x1="1766.8" y1="-537.14" x2="1766.8" y2="-348.71" xlink:href="#Безымянный_градиент_206"/><linearGradient id="Безымянный_градиент_206-61" x1="1846.05" y1="-537.14" x2="1846.05" y2="-348.71" xlink:href="#Безымянный_градиент_206"/><linearGradient id="Безымянный_градиент_206-62" x1="1883" y1="-537.14" x2="1883" y2="-348.71" xlink:href="#Безымянный_градиент_206"/><linearGradient id="Безымянный_градиент_206-63" x1="1887.58" y1="-537.14" x2="1887.58" y2="-348.71" xlink:href="#Безымянный_градиент_206"/><linearGradient id="Безымянный_градиент_206-64" x1="1886.21" y1="-537.14" x2="1886.21" y2="-348.71" xlink:href="#Безымянный_градиент_206"/><linearGradient id="Безымянный_градиент_206-65" x1="1869.98" y1="-537.14" x2="1869.98" y2="-348.71" xlink:href="#Безымянный_градиент_206"/><linearGradient id="Безымянный_градиент_206-66" x1="1878.37" y1="-537.14" x2="1878.37" y2="-348.71" xlink:href="#Безымянный_градиент_206"/><linearGradient id="Безымянный_градиент_206-67" x1="1900.64" y1="-537.14" x2="1900.64" y2="-348.7" xlink:href="#Безымянный_градиент_206"/><linearGradient id="Безымянный_градиент_206-68" x1="1860.59" y1="-537.14" x2="1860.59" y2="-348.71" xlink:href="#Безымянный_градиент_206"/><linearGradient id="Безымянный_градиент_206-69" x1="1814.77" y1="-537.14" x2="1814.77" y2="-348.71" xlink:href="#Безымянный_градиент_206"/><linearGradient id="Безымянный_градиент_206-70" x1="1877.3" y1="-537.14" x2="1877.3" y2="-348.7" xlink:href="#Безымянный_градиент_206"/><linearGradient id="Безымянный_градиент_206-71" x1="1809.39" y1="-537.14" x2="1809.39" y2="-348.71" xlink:href="#Безымянный_градиент_206"/><linearGradient id="Безымянный_градиент_206-72" x1="1825.96" y1="-537.14" x2="1825.96" y2="-348.71" xlink:href="#Безымянный_градиент_206"/><linearGradient id="Безымянный_градиент_206-73" x1="1802.88" y1="-537.14" x2="1802.88" y2="-348.71" xlink:href="#Безымянный_градиент_206"/><linearGradient id="Безымянный_градиент_206-74" x1="1772.9" y1="-537.14" x2="1772.9" y2="-348.71" xlink:href="#Безымянный_градиент_206"/><linearGradient id="Безымянный_градиент_206-75" x1="1840.18" y1="-537.14" x2="1840.18" y2="-348.7" xlink:href="#Безымянный_градиент_206"/><linearGradient id="Безымянный_градиент_206-76" x1="1768.53" y1="-537.14" x2="1768.53" y2="-348.71" xlink:href="#Безымянный_градиент_206"/><linearGradient id="Безымянный_градиент_206-77" x1="1833.78" y1="-537.14" x2="1833.78" y2="-348.71" xlink:href="#Безымянный_градиент_206"/><linearGradient id="Безымянный_градиент_206-78" x1="1821.64" y1="-537.14" x2="1821.64" y2="-348.69" xlink:href="#Безымянный_градиент_206"/><linearGradient id="Безымянный_градиент_206-79" x1="1778.44" y1="-537.14" x2="1778.44" y2="-348.71" xlink:href="#Безымянный_градиент_206"/><linearGradient id="Безымянный_градиент_206-80" x1="1775.31" y1="-537.14" x2="1775.31" y2="-348.71" xlink:href="#Безымянный_градиент_206"/><linearGradient id="Безымянный_градиент_206-81" x1="1770.88" y1="-537.14" x2="1770.88" y2="-348.71" xlink:href="#Безымянный_градиент_206"/><linearGradient id="Безымянный_градиент_206-82" x1="1780.41" y1="-537.14" x2="1780.41" y2="-348.71" xlink:href="#Безымянный_градиент_206"/><linearGradient id="Безымянный_градиент_206-83" x1="1775.19" y1="-537.14" x2="1775.19" y2="-348.71" xlink:href="#Безымянный_градиент_206"/><linearGradient id="Безымянный_градиент_206-84" x1="1794.52" y1="-537.14" x2="1794.52" y2="-348.71" xlink:href="#Безымянный_градиент_206"/><linearGradient id="Безымянный_градиент_206-85" x1="1790.32" y1="-537.14" x2="1790.32" y2="-348.71" xlink:href="#Безымянный_градиент_206"/><linearGradient id="Безымянный_градиент_206-86" x1="1790.54" y1="-537.14" x2="1790.54" y2="-348.71" xlink:href="#Безымянный_градиент_206"/><linearGradient id="Безымянный_градиент_206-87" x1="1788.87" y1="-537.14" x2="1788.87" y2="-348.71" xlink:href="#Безымянный_градиент_206"/><linearGradient id="Безымянный_градиент_206-88" x1="1781.96" y1="-537.14" x2="1781.96" y2="-348.71" xlink:href="#Безымянный_градиент_206"/></defs><title>hold_1</title><g class="cls-1"><g id="Слой_2" data-name="Слой 2"><g id="icons"><circle class="cls-2" cx="70" cy="70.03" r="70"/><g class="cls-3"><path class="cls-4" d="M70,0a70,70,0,1,0,70,70A70,70,0,0,0,70,0Zm0,130a60,60,0,1,1,60-60A60,60,0,0,1,70,130Z"/></g><g class="cls-5"><path class="cls-6" d="M121.38,25.77c.15.19,1.19-.38,2.14-.86l-.77-.9C121.89,25,121.29,25.67,121.38,25.77Z"/><path class="cls-7" d="M97.17,10.72c.4.18,1.76-1.86,2.16-1.67.12,0,.67-.77,1.41-2-.7-.34-1.39-.67-2.09-1C97.74,8.59,97,10.65,97.17,10.72Z"/><path class="cls-8" d="M107.37,17.28c.16.11,1.83-1.84,3.64-4l-1.09-.76C108.54,14.87,107.2,17.16,107.37,17.28Z"/><path class="cls-9" d="M81,5.41l1.2.24c.43.08,1.51-3.38,1.93-3.29s.61,1.22,1,1.31c.12,0,.43-.74.82-1.84-1.59-.37-3.2-.68-4.81-.94C80.93,3.32,80.78,5.38,81,5.41Z"/><path class="cls-10" d="M88.35,2.45l-.45-.12c0,.35,0,.58,0,.6S88.17,2.76,88.35,2.45Z"/><path class="cls-11" d="M91.25,9.22c.41.15,2.36-4.17,2.77-4s-.77,4.31-.36,4.47-.31,2.77.1,2.93c.19.08,1.88-3.38,3.66-7-1.72-.74-3.47-1.4-5.23-2C91.83,5.61,91,9.12,91.25,9.22Z"/><path class="cls-12" d="M132.57,41.28c.18.4-.47,1.13-.29,1.53a5.92,5.92,0,0,0,2-.46c-.27-.63-.53-1.25-.81-1.87C132.9,40.88,132.52,41.18,132.57,41.28Z"/><path class="cls-13" d="M121.73,36.12c.11.18,3.58-1.8,7.21-3.88l-1-1.46C126.07,32.45,121.54,35.84,121.73,36.12Z"/><path class="cls-14" d="M110.87,18.71c.34.27-.46,1.78-.12,2.06s3.07-2.67,4.64-4c-.78-.66-1.57-1.31-2.37-1.94C111.93,16.57,110.68,18.55,110.87,18.71Z"/><path class="cls-15" d="M127.74,39.47c.13.24,2.66-.76,4.54-1.43-.4-.78-.82-1.55-1.25-2.32-.42.42-.73.76-.66.9C130.58,37,127.54,39.08,127.74,39.47Z"/><path class="cls-16" d="M27.46,14.41l-.13.09c.05,0,.08,0,.1,0S27.46,14.46,27.46,14.41Z"/><path class="cls-17" d="M36.76,14.83c.23-.15-1.18-3.06-2.17-5.25-.83.49-1.65,1-2.47,1.54,2.16,2.94,4.41,6,4.61,5.91C37.09,16.8,36.39,15.05,36.76,14.83Z"/><path class="cls-18" d="M47,4.22c.41-.14,1.13.65,1.54.51s.63-.83,1.05-1c.09,0,.11-.33.08-.77-1.51.46-3,1-4.5,1.55a14.86,14.86,0,0,0,1.8,3.34C47.35,7.74,46.56,4.36,47,4.22Z"/><path class="cls-19" d="M113.66,21.11c.32.29,2.21-1.21,2.53-.92s-1.06,2.3-.74,2.6,2.28-1.51,3.73-2.59c-1.06-1.05-2.15-2.05-3.27-3C115.05,18.62,113.43,20.91,113.66,21.11Z"/><path class="cls-20" d="M57.62,4.64c.42-.08,1.33,3,1.76,3s-.19-6.28.24-6.35c.1,0,.17-.22.23-.53-1.81.27-3.6.62-5.38,1,.56.69,2.7,8.91,3.11,8.83S57.19,4.72,57.62,4.64Z"/><path class="cls-21" d="M30.47,14.29c.09-.07-.2-.69-.69-1.59l-.66.46C29.81,13.86,30.36,14.37,30.47,14.29Z"/><path class="cls-22" d="M78.17,7.86c.21,0,.93-3.54,1.65-7.18-.5-.07-1-.12-1.51-.18C78.15,3.85,77.92,7.82,78.17,7.86Z"/><path class="cls-23" d="M70,3.13c.18,0,.38-1.45.58-3.13H69.17C69.44,1.38,69.72,3.13,70,3.13Z"/><path class="cls-24" d="M75.66,9.53c.27,0,1-5.16,1.72-9.14-1-.1-1.93-.18-2.89-.24,0,4.14-.1,8.25.11,8.26C75,8.45,75.22,9.49,75.66,9.53Z"/><path class="cls-25" d="M67.87,0l-.74,0c.1.47.19.77.26.76S67.72.47,67.87,0Z"/><path class="cls-26" d="M65.24,6.77c.2,0,.19-3.14.16-6.61-.76,0-1.52.09-2.28.17.16.51.3.84.41.83C64,1.12,64.81,6.8,65.24,6.77Z"/><path class="cls-27" d="M126.82,47.68c.16.4,4.52-.93,4.67-.52.06.16,2-.35,4.32-1-.29-.81-.59-1.62-.92-2.42C130.78,45.62,126.74,47.48,126.82,47.68Z"/><path class="cls-28" d="M126.05,103.76c-.11.18,1.7,1.54,3.54,2.93.4-.65.8-1.31,1.18-2-.52-.18-.88-.27-.92-.18C129.63,104.91,126.28,103.38,126.05,103.76Z"/><path class="cls-29" d="M128.25,108.8c-2.64-1.49-5.41-3.08-5.54-2.89-.25.36-.28.74-.53,1.09s2.84,3,2.58,3.4c-.08.11.49.72,1.28,1.51C126.81,110.89,127.55,109.85,128.25,108.8Z"/><path class="cls-30" d="M131.14,82.75c-.09.43.05.76,0,1.19-.06.25,3.87,1.44,7,2.44.22-.93.42-1.86.61-2.79C134.85,83.05,131.18,82.54,131.14,82.75Z"/><path class="cls-31" d="M138,73.8c0,.43-1.25.75-1.28,1.18a11.1,11.1,0,0,0,3.06.73c.06-.79.13-1.58.17-2.38C138.87,73.47,138,73.62,138,73.8Z"/><path class="cls-32" d="M134.93,90c-.13.42-.28.79-.42,1.21s-3.76-.43-3.9,0c-.08.22,2.66,1.45,5.2,2.61.44-1.2.84-2.41,1.21-3.63A5.41,5.41,0,0,0,134.93,90Z"/><path class="cls-33" d="M126.43,95.88c-.18.39,6,3.66,5.77,4.06s-1.85,0-2,.41c-.08.16.91.88,2.08,1.7.62-1.21,1.19-2.43,1.74-3.67C130.76,97.23,126.55,95.63,126.43,95.88Z"/><path class="cls-34" d="M7.66,52c.06-.2-2.29-1.11-4.76-2.06-.15.52-.28,1-.43,1.56C4.36,51.74,7.58,52.33,7.66,52Z"/><path class="cls-35" d="M8.58,90.2c-.14-.41.48-1,.36-1.37s.7-1,.58-1.41c-.07-.22-3.64.53-7,1.22.35,1.28.73,2.55,1.16,3.81C6.35,91.35,8.64,90.38,8.58,90.2Z"/><path class="cls-36" d="M121,22.09c-.44-.46-.87-.93-1.32-1.38-1.85,2.25-5.84,6.58-5.61,6.82S118.22,24.36,121,22.09Z"/><path class="cls-37" d="M42.06,12c.4-.19,2.22,3,2.62,2.82s-.68-3.3-.28-3.47c.21-.1-.79-3-1.72-5.82C40.93,6.27,39.2,7.07,37.5,8c.89,1,2.63,3.66,2.94,3.5S41.67,12.19,42.06,12Z"/><path class="cls-38" d="M130,76.75c0,.29,5.74,1.27,9.42,2,.07-.56.15-1.13.21-1.69C135,76.8,130,76.52,130,76.75Z"/><path class="cls-39" d="M25.66,18.47c.33-.29,2.18,1.32,2.52,1a20.53,20.53,0,0,0-2.4-3.8c-.66.54-1.3,1.1-2,1.67C24.67,18,25.5,18.61,25.66,18.47Z"/><path class="cls-40" d="M136.39,70c0,.44-.77.79-.77,1.23,0,.24,2.28.54,4.32.84q.06-2.07,0-4.14c-2.9.32-6.07.64-6.06.88C133.89,69.22,136.39,69.55,136.39,70Z"/><path class="cls-41" d="M120.9,29.4c.27.34,2.24-.74,2.5-.39s-4.7,4.51-4.44,4.86c.13.18,4.11-2.41,7.81-4.82q-1.26-1.74-2.62-3.41C122.84,27.07,120.71,29.17,120.9,29.4Z"/><path class="cls-42" d="M100.32,17.43c.38.21,3.23-4,3.61-3.79s.9.06,1.27.3S103,18.79,103.33,19s3.14-3.8,5.68-7.16Q106.7,10.33,104.3,9C102.3,13,100.12,17.31,100.32,17.43Z"/><path class="cls-43" d="M133.21,53c0,.17,2.1-.17,4.54-.61l-.45-1.67C136.51,51.36,133.11,52.67,133.21,53Z"/><path class="cls-44" d="M133.13,49.2c.13.42-3.35,1.88-3.22,2.29s6.09-1,7.31-1c-.28-1-.58-1.91-.9-2.86A13.9,13.9,0,0,0,133.13,49.2Z"/><path class="cls-45" d="M139.72,64c0-.37-.06-.74-.1-1.11a18.49,18.49,0,0,0-4.09,1A17.93,17.93,0,0,0,139.72,64Z"/><path class="cls-46" d="M136.55,56.09a5.35,5.35,0,0,0,2,0c-.07-.34-.15-.68-.22-1C137.41,55.49,136.5,55.89,136.55,56.09Z"/><path class="cls-47" d="M139.92,66.9c0-.52-.07-1-.1-1.57-4.43.51-8.77,1-8.76,1.22S136,66.83,139.92,66.9Z"/><path class="cls-48" d="M139.23,59.72c0-.14,0-.28-.07-.42-.11.1-.18.2-.17.28S139.09,59.68,139.23,59.72Z"/><path class="cls-49" d="M52.86,2.11c-.44.11-.87.24-1.31.36.24.45.43.74.53.71C52.41,3.09,52.6,2.44,52.86,2.11Z"/><path class="cls-50" d="M16.61,36.46c.11-.18-2.67-2.22-5.51-4.31q-.39.6-.75,1.2C13.46,35,16.5,36.64,16.61,36.46Z"/><path class="cls-51" d="M103.34,131.53c-2-3.16-3.94-6.36-4.14-6.26-.38.2,0,1.51-.44,1.71s-1.56-1.5-2-1.31.12,2-.27,2.17,1,3.54,1.87,6.12Q100.9,132.85,103.34,131.53Z"/><path class="cls-52" d="M9.3,46.17c.16-.4,3.46.59,3.63.18.08-.19-3.53-1.94-7.34-3.79-.35.82-.69,1.65-1,2.49C7,45.73,9.23,46.37,9.3,46.17Z"/><path class="cls-53" d="M10.18,56.33c.1-.42-7.65-2.62-7.54-3,0-.16-.19-.39-.47-.63-.23.92-.44,1.85-.64,2.78C4.15,55.68,10.11,56.67,10.18,56.33Z"/><path class="cls-54" d="M11.42,50.71c.14-.41-1.58-1.3-1.43-1.72.07-.21-2.95-1.54-5.83-2.82-.32.9-.62,1.79-.9,2.7C7.08,49.83,11.35,50.94,11.42,50.71Z"/><path class="cls-55" d="M109.52,119.58c-.15.12,1.62,2.7,3.59,5.53.37-.28.74-.56,1.11-.86C112,121.92,109.7,119.43,109.52,119.58Z"/><path class="cls-56" d="M106,118.8c-.35.26.36,1.72,0,2s2.12,4.4,1.76,4.64.48,1.66,1,2.88c1.15-.77,2.28-1.59,3.4-2.43C109.18,122.29,106.17,118.67,106,118.8Z"/><path class="cls-57" d="M103.27,123c-.24.15,1.84,4,3.19,6.76.54-.33,1.08-.66,1.6-1C106.43,126.75,103.54,122.8,103.27,123Z"/><path class="cls-58" d="M110.4,115.22c-.33.29.37,1.51,0,1.79-.18.16,2.37,3.54,4.59,6.54.72-.61,1.44-1.22,2.14-1.87C113.87,118.38,110.56,115.08,110.4,115.22Z"/><path class="cls-59" d="M20.45,24c.1-.12-.55-1-1.42-2-.28.3-.58.59-.86.9C19.18,23.52,20.28,24.2,20.45,24Z"/><path class="cls-60" d="M3.38,57.39c.05-.26-1.11-.75-2-1.2-.1.54-.2,1.08-.29,1.61C2,57.7,3.33,57.66,3.38,57.39Z"/><path class="cls-61" d="M14.55,32.2c.14-.2-1-1.29-2-2.26-.24.35-.49.69-.72,1A9,9,0,0,0,14.55,32.2Z"/><path class="cls-62" d="M12.06,100.6a21,21,0,0,0-4.24,1.59c.22.41.44.82.67,1.23C10.11,102.24,12.18,100.83,12.06,100.6Z"/><path class="cls-63" d="M12.42,97.71c-.12-.24-3.36,1-5.88,1.89.22.45.45.9.67,1.34C10,99.35,12.5,97.89,12.42,97.71Z"/><path class="cls-64" d="M12.36,103.26c-.12-.22-1.84.48-3.37,1.07.24.41.46.83.7,1.24C11.1,104.49,12.47,103.44,12.36,103.26Z"/><path class="cls-65" d="M120.71,118.2c-1-.71-1.72-1.21-1.82-1.11-.3.32-3.19-2-3.5-1.7-.13.13,1.62,2.18,3.65,4.52l.45-.42C119.91,119.06,120.3,118.63,120.71,118.2Z"/><path class="cls-66" d="M17,109.07c-.26-.35,2.06-2.44,1.8-2.79s-6.06,3.25-6.31,2.89-.13-1-.37-1.31c0-.07-.36,0-.86.26q1.29,2,2.72,3.87A18.06,18.06,0,0,0,17,109.07Z"/><path class="cls-67" d="M6.86,67.63c0-.27-3.84-.71-6.78-1.1,0,.58,0,1.16,0,1.73C2.84,68.07,6.85,67.91,6.86,67.63Z"/><path class="cls-68" d="M5.8,61.54c0-.24-2.66-.85-5.11-1.43-.07.47-.11.94-.17,1.41C3.22,61.64,5.77,61.74,5.8,61.54Z"/><path class="cls-69" d="M2.51,64.94a6.56,6.56,0,0,0-2.28-.62c0,.35-.05.7-.07,1C1.39,65.25,2.49,65.13,2.51,64.94Z"/><path class="cls-70" d="M3.59,86.46C3.48,86,7,84.83,6.88,84.4c0-.18-2.51.15-5.26.55.17.77.34,1.53.53,2.29C3,86.88,3.62,86.59,3.59,86.46Z"/><path class="cls-71" d="M.16,74.66c0,.37,0,.74.08,1.11a19.45,19.45,0,0,0,4.23-.86A19,19,0,0,0,.16,74.66Z"/><path class="cls-72" d="M23.06,18.05c-.39.35-.77.73-1.15,1.09,2.45,2.29,4.71,4.39,4.85,4.25S24.53,20.09,23.06,18.05Z"/><path class="cls-73" d="M12.67,92.49c-.1-.26-4.71,1.23-8.15,2.26.23.62.47,1.25.72,1.87C6.84,95.58,12.81,92.84,12.67,92.49Z"/><path class="cls-74" d="M37.88,130.76c-.39-.2,2.12-5.59,1.74-5.8s-2.9,3.54-3.28,3.32c-.17-.1-1,.92-1.89,2,1,.62,2.09,1.2,3.15,1.75C37.84,131.33,38,130.81,37.88,130.76Z"/><path class="cls-75" d="M1.53,77.71c0-.09-.45-.14-1.12-.16,0,.22.05.43.08.65C1.11,78,1.54,77.83,1.53,77.71Z"/><path class="cls-76" d="M44.53,131.47c-.41-.16,1.46-5.38,1.06-5.56s-1,.45-1.37.27c-.23-.1-2.29,3.74-4.14,7.11,1.28.6,2.58,1.17,3.89,1.69C44.29,133.49,44.77,131.58,44.53,131.47Z"/><path class="cls-77" d="M32.33,119.09c-.35-.26-2.78,2.32-3.12,2s-1.58.67-1.91.39c-.13-.11-1.16.83-2.38,2,1,.85,2,1.68,3.08,2.46C30.15,122.77,32.52,119.24,32.33,119.09Z"/><path class="cls-78" d="M53.69,130.8c-.42-.11-.48-1-.9-1.14s-.58-.57-1-.7-2.72,6-3.14,5.87,1.62-7.17,1.21-7.32c-.21-.07-2,4.14-3.69,8.3,2.11.77,4.26,1.42,6.42,2C53.24,134.37,53.91,130.86,53.69,130.8Z"/><path class="cls-79" d="M95.92,135c.57-.23,1.13-.47,1.7-.72-1.56-3-3.75-7.42-4-7.31S95,131.93,95.92,135Z"/><path class="cls-80" d="M16.79,114.06c-.06-.07-.39.09-.88.37.23.28.48.55.71.83C16.74,114.8,17,114.27,16.79,114.06Z"/><path class="cls-81" d="M122.7,115.34c-.29.33-7-5.08-7.26-4.75-.17.18,3.27,3.64,6.19,6.64.54-.59,1.05-1.18,1.56-1.78C122.93,115.33,122.75,115.28,122.7,115.34Z"/><path class="cls-82" d="M23.24,122.09c.46-1.06,3.47-4.88,3.19-5.14s-2.53,1.52-2.84,1.21,2.81-4,2.5-4.28-4.22,3.06-4.52,2.74.81-1.88.52-2.19-2.49,1.48-4,2.5c.79.86,1.59,1.72,2.43,2.56S22.31,121.25,23.24,122.09Z"/><path class="cls-83" d="M30.4,125.8c-.1-.07-.59.38-1.24,1,.52.37,1,.73,1.57,1.08.05-.19.06-.33,0-.36C30.38,127.32,30.76,126.05,30.4,125.8Z"/><path class="cls-84" d="M82.23,138.9c.52-.1,1-.18,1.55-.29-.81-2.82-1.69-6.05-1.93-6S82,136,82.23,138.9Z"/><path class="cls-85" d="M85.09,138.33l.83-.18c-.36-1-.64-1.71-.75-1.69S85,137.31,85.09,138.33Z"/><path class="cls-86" d="M93.42,136c.49-.17,1-.36,1.45-.55-.47-.71-.9-1.32-1.07-1.25S93.55,135.36,93.42,136Z"/><path class="cls-87" d="M79.31,131.77c-.43.07-.62.91-1,1s-.08,6-.51,6.07-1.18-3.36-1.61-3.32c-.26,0-.32,2.39-.43,4.26,1.85-.15,3.7-.38,5.53-.68C80.47,135.78,79.57,131.73,79.31,131.77Z"/><path class="cls-88" d="M89.05,127.89c-.31.1,1.24,5.91,1.87,8.89.69-.21,1.39-.43,2.07-.67C92.15,134.78,89.42,127.76,89.05,127.89Z"/><path class="cls-89" d="M57.28,137.18c-.14,0-.41.62-.73,1.51.78.15,1.57.28,2.36.4.18-2.43.33-4.67.14-4.7C58.62,134.31,57.71,137.26,57.28,137.18Z"/><path class="cls-90" d="M61.81,139.49l1,.12c-.15-.49-.31-1-.51-1S62,139,61.81,139.49Z"/><path class="cls-91" d="M63.72,139.7c.66.06,1.31.1,2,.14-.08-3.15,0-8.07-.33-8.09S64.25,137.3,63.72,139.7Z"/><path class="cls-92" d="M66.43,139.89c.7,0,1.4.05,2.1.06-.32-1.77-.45-8.77-.83-8.78S66.87,136.58,66.43,139.89Z"/><path class="cls-93" d="M73.31,139.91l1.11-.08c-.2-.56-.39-1-.56-1S73.48,139.36,73.31,139.91Z"/></g></g></g></g></svg>