<svg xmlns="http://www.w3.org/2000/svg" xmlns:xlink="http://www.w3.org/1999/xlink" width="250" height="80"  viewBox="0 0 250 70"><defs><style>.cls-1{isolation:isolate;}.cls-2{fill:url(#Безымянный_градиент_15);}.cls-3{font-size:28px;fill:#2e2f40;font-family:Ubuntu-Bold, Ubuntu;font-weight:700;}.cls-4{letter-spacing:-0.01em;}.cls-5,.cls-6,.cls-7,.cls-8{fill-rule:evenodd;mix-blend-mode:luminosity;}.cls-5{fill:url(#Безымянный_градиент_82);}.cls-6{fill:url(#Безымянный_градиент_57);}.cls-7{fill:url(#Безымянный_градиент_84);}.cls-8{fill:url(#Безымянный_градиент_88);}</style><linearGradient id="Безымянный_градиент_15" x1="125" x2="125" y2="69.38" gradientUnits="userSpaceOnUse"><stop offset="0" stop-color="#bf88a6"/><stop offset="1" stop-color="#8563a6"/></linearGradient><linearGradient id="Безымянный_градиент_82" x1="241.62" y1="35.43" x2="250" y2="35.43" gradientUnits="userSpaceOnUse"><stop offset="0" stop-color="#926d98" stop-opacity="0"/><stop offset="0.03" stop-color="#926d98" stop-opacity="0.05"/><stop offset="0.18" stop-color="#926d96" stop-opacity="0.34"/><stop offset="0.34" stop-color="#916d94" stop-opacity="0.58"/><stop offset="0.5" stop-color="#916d93" stop-opacity="0.76"/><stop offset="0.66" stop-color="#916d92" stop-opacity="0.9"/><stop offset="0.82" stop-color="#916d91" stop-opacity="0.97"/><stop offset="1" stop-color="#916d91"/></linearGradient><linearGradient id="Безымянный_градиент_57" x1="124.7" y1="69.97" x2="124.7" y2="58.42" gradientUnits="userSpaceOnUse"><stop offset="0" stop-color="#463656"/><stop offset="0.21" stop-color="#4a395a" stop-opacity="0.95"/><stop offset="0.43" stop-color="#554166" stop-opacity="0.8"/><stop offset="0.66" stop-color="#674e7a" stop-opacity="0.55"/><stop offset="0.89" stop-color="#816196" stop-opacity="0.2"/><stop offset="1" stop-color="#8f6ca6" stop-opacity="0"/></linearGradient><linearGradient id="Безымянный_градиент_84" y1="34.67" x2="9.51" y2="34.67" gradientUnits="userSpaceOnUse"><stop offset="0" stop-color="#916d91"/><stop offset="0.18" stop-color="#916d91" stop-opacity="0.97"/><stop offset="0.34" stop-color="#916d92" stop-opacity="0.9"/><stop offset="0.5" stop-color="#916d93" stop-opacity="0.76"/><stop offset="0.66" stop-color="#916d94" stop-opacity="0.58"/><stop offset="0.82" stop-color="#926d96" stop-opacity="0.34"/><stop offset="0.97" stop-color="#926d98" stop-opacity="0.05"/><stop offset="1" stop-color="#926d98" stop-opacity="0"/></linearGradient><linearGradient id="Безымянный_градиент_88" x1="125.43" y1="-0.1" x2="125.43" y2="7.97" gradientUnits="userSpaceOnUse"><stop offset="0" stop-color="#d1b5c9"/><stop offset="0.14" stop-color="#d2b6ca" stop-opacity="0.98"/><stop offset="0.28" stop-color="#d5bbcd" stop-opacity="0.92"/><stop offset="0.42" stop-color="#d9c2d2" stop-opacity="0.83"/><stop offset="0.55" stop-color="#dfccda" stop-opacity="0.69"/><stop offset="0.69" stop-color="#e7d9e3" stop-opacity="0.52"/><stop offset="0.83" stop-color="#f1e8ee" stop-opacity="0.31"/><stop offset="0.97" stop-color="#fcfafc" stop-opacity="0.06"/><stop offset="1" stop-color="#fff" stop-opacity="0"/></linearGradient></defs><title>info_butt</title><g class="cls-1"><g id="Слой_2" data-name="Слой 2"><g id="icons"><rect class="cls-2" width="250" height="70" rx="10"/><path class="cls-5" d="M250,10V60a10,10,0,0,1-3.08,7.21l-5.3-4.71a4.83,4.83,0,0,0,1.88-3.82V12.32a4.84,4.84,0,0,0-1.6-3.59l5.83-5.08A10,10,0,0,1,250,10Z"/><path class="cls-6" d="M246.92,67.21A9.92,9.92,0,0,1,240,70H10a10,10,0,0,1-7.51-3.4l5.89-5.14a4.82,4.82,0,0,0,3.94,2H238.68a4.77,4.77,0,0,0,2.94-1Z"/><path class="cls-7" d="M7.5,12.32V58.68a4.86,4.86,0,0,0,.88,2.78L2.49,66.6A10,10,0,0,1,0,60V10A10,10,0,0,1,3.14,2.73L9.51,8.4A4.82,4.82,0,0,0,7.5,12.32Z"/><path class="cls-8" d="M247.73,3.65,241.9,8.73a4.82,4.82,0,0,0-3.22-1.23H12.32a4.78,4.78,0,0,0-2.81.9L3.14,2.73A10,10,0,0,1,10,0H240A10,10,0,0,1,247.73,3.65Z"/></g></g></g></svg>